<svg width="543" height="257" viewBox="0 0 543 257" fill="none" xmlns="http://www.w3.org/2000/svg">
<path opacity="0.6" d="M4.9116 256.68C2.46336 255.727 1.23924 252.948 2.18064 250.471C3.12204 247.993 5.86804 246.754 8.31628 247.707C10.7645 248.66 11.9886 251.439 11.0472 253.916C10.1058 256.394 7.35984 257.63 4.9116 256.68ZM22.2117 256.68C19.7634 255.727 18.5393 252.948 19.4807 250.471C20.4221 247.993 23.1681 246.754 25.6164 247.707C28.0646 248.66 29.2887 251.439 28.3473 253.916C27.4089 256.394 24.6629 257.63 22.2117 256.68ZM39.5148 256.68C37.0665 255.727 35.8424 252.948 36.7838 250.471C37.7252 247.993 40.4712 246.754 42.9194 247.707C45.3677 248.66 46.5918 251.439 45.6504 253.916C44.712 256.394 41.963 257.63 39.5148 256.68ZM56.8148 256.68C54.3666 255.727 53.1425 252.948 54.0839 250.471C55.0253 247.993 57.7713 246.754 60.2195 247.707C62.6678 248.66 63.8919 251.439 62.9505 253.916C62.0121 256.394 59.2661 257.63 56.8148 256.68ZM74.1179 256.68C71.6697 255.727 70.4456 252.948 71.387 250.471C72.3284 247.993 75.0744 246.754 77.5226 247.707C79.9709 248.66 81.195 251.439 80.2536 253.916C79.3152 256.394 76.5662 257.63 74.1179 256.68ZM91.421 256.68C88.9728 255.727 87.7487 252.948 88.6901 250.471C89.6315 247.993 92.3775 246.754 94.8257 247.707C97.2739 248.66 98.4981 251.439 97.5567 253.916C96.6153 256.394 93.8693 257.63 91.421 256.68ZM108.721 256.68C106.273 255.727 105.049 252.948 105.99 250.471C106.932 247.993 109.678 246.754 112.126 247.707C114.574 248.66 115.798 251.439 114.857 253.916C113.918 256.394 111.172 257.63 108.721 256.68ZM126.024 256.68C123.576 255.727 122.352 252.948 123.293 250.471C124.235 247.993 126.981 246.754 129.429 247.707C131.877 248.66 133.101 251.439 132.16 253.916C131.221 256.394 128.472 257.63 126.024 256.68ZM143.327 256.68C140.879 255.727 139.655 252.948 140.596 250.471C141.538 247.993 144.284 246.754 146.732 247.707C149.18 248.66 150.404 251.439 149.466 253.916C148.522 256.394 145.776 257.63 143.327 256.68ZM160.627 256.68C158.179 255.727 156.955 252.948 157.896 250.471C158.838 247.993 161.584 246.754 164.032 247.707C166.48 248.66 167.704 251.439 166.763 253.916C165.825 256.394 163.079 257.63 160.627 256.68ZM177.93 256.68C175.482 255.727 174.258 252.948 175.199 250.471C176.141 247.993 178.887 246.754 181.335 247.707C183.783 248.66 185.007 251.439 184.066 253.916C183.128 256.394 180.379 257.63 177.93 256.68ZM195.231 256.68C192.782 255.727 191.558 252.948 192.5 250.471C193.441 247.993 196.187 246.754 198.635 247.707C201.083 248.66 202.308 251.439 201.366 253.916C200.428 256.394 197.682 257.63 195.231 256.68ZM212.534 256.68C210.085 255.727 208.861 252.948 209.803 250.471C210.744 247.993 213.49 246.754 215.938 247.707C218.387 248.66 219.611 251.439 218.669 253.916C217.731 256.394 214.982 257.63 212.534 256.68ZM229.837 256.68C227.388 255.727 226.164 252.948 227.106 250.471C228.047 247.993 230.793 246.754 233.241 247.707C235.69 248.66 236.914 251.439 235.972 253.916C235.031 256.394 232.285 257.63 229.837 256.68ZM247.137 256.68C244.689 255.727 243.464 252.948 244.406 250.471C245.347 247.993 248.093 246.754 250.541 247.707C252.99 248.66 254.214 251.439 253.272 253.916C252.334 256.394 249.588 257.63 247.137 256.68ZM264.44 256.68C261.992 255.727 260.768 252.948 261.709 250.471C262.65 247.993 265.396 246.754 267.845 247.707C270.293 248.66 271.517 251.439 270.575 253.916C269.637 256.394 266.888 257.63 264.44 256.68ZM281.743 256.68C279.295 255.727 278.071 252.948 279.012 250.471C279.953 247.993 282.699 246.754 285.148 247.707C287.596 248.66 288.82 251.439 287.879 253.916C286.937 256.394 284.191 257.63 281.743 256.68ZM299.043 256.68C296.595 255.727 295.371 252.948 296.312 250.471C297.253 247.993 299.999 246.754 302.448 247.707C304.896 248.66 306.12 251.439 305.179 253.916C304.24 256.394 301.494 257.63 299.043 256.68ZM316.346 256.68C313.898 255.727 312.674 252.948 313.612 250.471C314.554 247.993 317.3 246.754 319.748 247.707C322.196 248.66 323.42 251.439 322.479 253.916C321.543 256.394 318.794 257.63 316.346 256.68ZM333.646 256.68C331.198 255.727 329.974 252.948 330.915 250.471C331.857 247.993 334.603 246.754 337.051 247.707C339.499 248.66 340.723 251.439 339.782 253.916C338.843 256.394 336.097 257.63 333.646 256.68ZM350.949 256.68C348.501 255.727 347.277 252.948 348.218 250.471C349.16 247.993 351.906 246.754 354.354 247.707C356.802 248.66 358.026 251.439 357.085 253.916C356.147 256.394 353.398 257.63 350.949 256.68ZM368.252 256.68C365.804 255.727 364.58 252.948 365.521 250.471C366.463 247.993 369.209 246.754 371.657 247.707C374.105 248.66 375.329 251.439 374.388 253.916C373.447 256.394 370.701 257.63 368.252 256.68ZM385.552 256.68C383.104 255.727 381.88 252.948 382.822 250.471C383.763 247.993 386.509 246.754 388.957 247.707C391.405 248.66 392.63 251.439 391.688 253.916C390.75 256.394 388.004 257.63 385.552 256.68ZM402.856 256.68C400.407 255.727 399.183 252.948 400.125 250.471C401.066 247.993 403.812 246.754 406.26 247.707C408.708 248.66 409.933 251.439 408.991 253.916C408.053 256.394 405.304 257.63 402.856 256.68ZM420.159 256.68C417.71 255.727 416.486 252.948 417.428 250.471C418.369 247.993 421.115 246.754 423.563 247.707C426.012 248.66 427.236 251.439 426.294 253.916C425.353 256.394 422.607 257.63 420.159 256.68ZM437.459 256.68C435.011 255.727 433.786 252.948 434.728 250.471C435.669 247.993 438.415 246.754 440.863 247.707C443.312 248.66 444.536 251.439 443.594 253.916C442.656 256.394 439.91 257.63 437.459 256.68ZM454.762 256.68C452.314 255.727 451.089 252.948 452.031 250.471C452.972 247.993 455.718 246.754 458.166 247.707C460.615 248.66 461.839 251.439 460.897 253.916C459.959 256.394 457.21 257.63 454.762 256.68ZM472.062 256.68C469.614 255.727 468.39 252.948 469.331 250.471C470.272 247.993 473.018 246.754 475.467 247.707C477.915 248.66 479.139 251.439 478.198 253.916C477.259 256.394 474.513 257.63 472.062 256.68ZM489.365 256.68C486.917 255.727 485.693 252.948 486.634 250.471C487.575 247.993 490.321 246.754 492.77 247.707C495.218 248.66 496.442 251.439 495.501 253.916C494.562 256.394 491.813 257.63 489.365 256.68ZM506.668 256.68C504.22 255.727 502.996 252.948 503.937 250.471C504.879 247.993 507.624 246.754 510.073 247.707C512.521 248.66 513.745 251.439 512.804 253.916C511.862 256.394 509.116 257.63 506.668 256.68ZM524.651 254.884C523.18 254.312 522.446 252.644 523.012 251.159C523.577 249.673 525.225 248.928 526.693 249.5C528.161 250.072 528.898 251.74 528.332 253.225C527.767 254.714 526.119 255.453 524.651 254.884ZM542.947 252.181C542.953 252.166 542.968 252.16 542.983 252.163C542.998 252.169 543.004 252.184 542.998 252.2C542.992 252.215 542.977 252.221 542.962 252.215C542.949 252.212 542.94 252.197 542.947 252.181ZM4.9116 239.169C2.46336 238.216 1.23924 235.437 2.18064 232.96C3.12204 230.482 5.86804 229.243 8.31628 230.196C10.7645 231.149 11.9886 233.928 11.0472 236.405C10.1058 238.883 7.35984 240.122 4.9116 239.169ZM22.2117 239.169C19.7634 238.216 18.5393 235.437 19.4807 232.96C20.4221 230.482 23.1681 229.243 25.6164 230.196C28.0646 231.149 29.2887 233.928 28.3473 236.405C27.4089 238.883 24.6629 240.122 22.2117 239.169ZM39.5148 239.169C37.0665 238.216 35.8424 235.437 36.7838 232.96C37.7252 230.482 40.4712 229.243 42.9194 230.196C45.3677 231.149 46.5918 233.928 45.6504 236.405C44.712 238.883 41.963 240.122 39.5148 239.169ZM56.8148 239.169C54.3666 238.216 53.1425 235.437 54.0839 232.96C55.0253 230.482 57.7713 229.243 60.2195 230.196C62.6678 231.149 63.8919 233.928 62.9505 236.405C62.0121 238.883 59.2661 240.122 56.8148 239.169ZM74.1179 239.169C71.6697 238.216 70.4456 235.437 71.387 232.96C72.3284 230.482 75.0744 229.243 77.5226 230.196C79.9709 231.149 81.195 233.928 80.2536 236.405C79.3152 238.883 76.5662 240.122 74.1179 239.169ZM91.421 239.169C88.9728 238.216 87.7487 235.437 88.6901 232.96C89.6315 230.482 92.3775 229.243 94.8257 230.196C97.2739 231.149 98.4981 233.928 97.5567 236.405C96.6153 238.883 93.8693 240.122 91.421 239.169ZM108.721 239.169C106.273 238.216 105.049 235.437 105.99 232.96C106.932 230.482 109.678 229.243 112.126 230.196C114.574 231.149 115.798 233.928 114.857 236.405C113.918 238.883 111.172 240.122 108.721 239.169ZM126.024 239.169C123.576 238.216 122.352 235.437 123.293 232.96C124.235 230.482 126.981 229.243 129.429 230.196C131.877 231.149 133.101 233.928 132.16 236.405C131.221 238.883 128.472 240.122 126.024 239.169ZM143.327 239.169C140.879 238.216 139.655 235.437 140.596 232.96C141.538 230.482 144.284 229.243 146.732 230.196C149.18 231.149 150.404 233.928 149.466 236.405C148.522 238.883 145.776 240.122 143.327 239.169ZM160.627 239.169C158.179 238.216 156.955 235.437 157.896 232.96C158.838 230.482 161.584 229.243 164.032 230.196C166.48 231.149 167.704 233.928 166.763 236.405C165.825 238.883 163.079 240.122 160.627 239.169ZM177.93 239.169C175.482 238.216 174.258 235.437 175.199 232.96C176.141 230.482 178.887 229.243 181.335 230.196C183.783 231.149 185.007 233.928 184.066 236.405C183.128 238.883 180.379 240.122 177.93 239.169ZM195.231 239.169C192.782 238.216 191.558 235.437 192.5 232.96C193.441 230.482 196.187 229.243 198.635 230.196C201.083 231.149 202.308 233.928 201.366 236.405C200.428 238.883 197.682 240.122 195.231 239.169ZM212.534 239.169C210.085 238.216 208.861 235.437 209.803 232.96C210.744 230.482 213.49 229.243 215.938 230.196C218.387 231.149 219.611 233.928 218.669 236.405C217.731 238.883 214.982 240.122 212.534 239.169ZM229.837 239.169C227.388 238.216 226.164 235.437 227.106 232.96C228.047 230.482 230.793 229.243 233.241 230.196C235.69 231.149 236.914 233.928 235.972 236.405C235.031 238.883 232.285 240.122 229.837 239.169ZM247.137 239.169C244.689 238.216 243.464 235.437 244.406 232.96C245.347 230.482 248.093 229.243 250.541 230.196C252.99 231.149 254.214 233.928 253.272 236.405C252.334 238.883 249.588 240.122 247.137 239.169ZM264.44 239.169C261.992 238.216 260.768 235.437 261.709 232.96C262.65 230.482 265.396 229.243 267.845 230.196C270.293 231.149 271.517 233.928 270.575 236.405C269.637 238.883 266.888 240.122 264.44 239.169ZM281.743 239.169C279.295 238.216 278.071 235.437 279.012 232.96C279.953 230.482 282.699 229.243 285.148 230.196C287.596 231.149 288.82 233.928 287.879 236.405C286.937 238.883 284.191 240.122 281.743 239.169ZM299.043 239.169C296.595 238.216 295.371 235.437 296.312 232.96C297.253 230.482 299.999 229.243 302.448 230.196C304.896 231.149 306.12 233.928 305.179 236.405C304.24 238.883 301.494 240.122 299.043 239.169ZM316.346 239.169C313.898 238.216 312.674 235.437 313.612 232.96C314.554 230.482 317.3 229.243 319.748 230.196C322.196 231.149 323.42 233.928 322.479 236.405C321.543 238.883 318.794 240.122 316.346 239.169ZM333.646 239.169C331.198 238.216 329.974 235.437 330.915 232.96C331.857 230.482 334.603 229.243 337.051 230.196C339.499 231.149 340.723 233.928 339.782 236.405C338.843 238.883 336.097 240.122 333.646 239.169ZM350.949 239.169C348.501 238.216 347.277 235.437 348.218 232.96C349.16 230.482 351.906 229.243 354.354 230.196C356.802 231.149 358.026 233.928 357.085 236.405C356.147 238.883 353.398 240.122 350.949 239.169ZM368.252 239.169C365.804 238.216 364.58 235.437 365.521 232.96C366.463 230.482 369.209 229.243 371.657 230.196C374.105 231.149 375.329 233.928 374.388 236.405C373.447 238.883 370.701 240.122 368.252 239.169ZM385.552 239.169C383.104 238.216 381.88 235.437 382.822 232.96C383.763 230.482 386.509 229.243 388.957 230.196C391.405 231.149 392.63 233.928 391.688 236.405C390.75 238.883 388.004 240.122 385.552 239.169ZM402.856 239.169C400.407 238.216 399.183 235.437 400.125 232.96C401.066 230.482 403.812 229.243 406.26 230.196C408.708 231.149 409.933 233.928 408.991 236.405C408.053 238.883 405.304 240.122 402.856 239.169ZM420.159 239.169C417.71 238.216 416.486 235.437 417.428 232.96C418.369 230.482 421.115 229.243 423.563 230.196C426.012 231.149 427.236 233.928 426.294 236.405C425.353 238.883 422.607 240.122 420.159 239.169ZM437.459 239.169C435.011 238.216 433.786 235.437 434.728 232.96C435.669 230.482 438.415 229.243 440.863 230.196C443.312 231.149 444.536 233.928 443.594 236.405C442.656 238.883 439.91 240.122 437.459 239.169ZM454.762 239.169C452.314 238.216 451.089 235.437 452.031 232.96C452.972 230.482 455.718 229.243 458.166 230.196C460.615 231.149 461.839 233.928 460.897 236.405C459.959 238.883 457.21 240.122 454.762 239.169ZM472.062 239.169C469.614 238.216 468.39 235.437 469.331 232.96C470.272 230.482 473.018 229.243 475.467 230.196C477.915 231.149 479.139 233.928 478.198 236.405C477.259 238.883 474.513 240.122 472.062 239.169ZM489.488 238.843C487.218 237.961 486.084 235.383 486.956 233.085C487.828 230.787 490.376 229.639 492.646 230.522C494.917 231.404 496.051 233.983 495.179 236.281C494.307 238.579 491.759 239.726 489.488 238.843ZM507.606 236.695C506.509 236.268 505.958 235.02 506.382 233.909C506.803 232.799 508.037 232.241 509.134 232.671C510.232 233.097 510.783 234.345 510.358 235.456C509.934 236.567 508.704 237.121 507.606 236.695ZM525.616 234.661C525.628 234.631 525.661 234.616 525.692 234.628C525.722 234.64 525.737 234.674 525.725 234.704C525.713 234.734 525.679 234.75 525.649 234.737C525.622 234.725 525.607 234.692 525.616 234.661ZM4.9116 221.658C2.46336 220.706 1.23924 217.927 2.18064 215.449C3.12204 212.971 5.86804 211.732 8.31628 212.685C10.7645 213.638 11.9886 216.417 11.0472 218.895C10.1058 221.372 7.35984 222.611 4.9116 221.658ZM22.2117 221.658C19.7634 220.706 18.5393 217.927 19.4807 215.449C20.4221 212.971 23.1681 211.732 25.6164 212.685C28.0646 213.638 29.2887 216.417 28.3473 218.895C27.4089 221.372 24.6629 222.611 22.2117 221.658ZM39.5148 221.658C37.0665 220.706 35.8424 217.927 36.7838 215.449C37.7252 212.971 40.4712 211.732 42.9194 212.685C45.3677 213.638 46.5918 216.417 45.6504 218.895C44.712 221.372 41.963 222.611 39.5148 221.658ZM56.8148 221.658C54.3666 220.706 53.1425 217.927 54.0839 215.449C55.0253 212.971 57.7713 211.732 60.2195 212.685C62.6678 213.638 63.8919 216.417 62.9505 218.895C62.0121 221.372 59.2661 222.611 56.8148 221.658ZM74.1179 221.658C71.6697 220.706 70.4456 217.927 71.387 215.449C72.3284 212.971 75.0744 211.732 77.5226 212.685C79.9709 213.638 81.195 216.417 80.2536 218.895C79.3152 221.372 76.5662 222.611 74.1179 221.658ZM91.421 221.658C88.9728 220.706 87.7487 217.927 88.6901 215.449C89.6315 212.971 92.3775 211.732 94.8257 212.685C97.2739 213.638 98.4981 216.417 97.5567 218.895C96.6153 221.372 93.8693 222.611 91.421 221.658ZM108.721 221.658C106.273 220.706 105.049 217.927 105.99 215.449C106.932 212.971 109.678 211.732 112.126 212.685C114.574 213.638 115.798 216.417 114.857 218.895C113.918 221.372 111.172 222.611 108.721 221.658ZM126.024 221.658C123.576 220.706 122.352 217.927 123.293 215.449C124.235 212.971 126.981 211.732 129.429 212.685C131.877 213.638 133.101 216.417 132.16 218.895C131.221 221.372 128.472 222.611 126.024 221.658ZM143.327 221.658C140.879 220.706 139.655 217.927 140.596 215.449C141.538 212.971 144.284 211.732 146.732 212.685C149.18 213.638 150.404 216.417 149.466 218.895C148.522 221.372 145.776 222.611 143.327 221.658ZM160.627 221.658C158.179 220.706 156.955 217.927 157.896 215.449C158.838 212.971 161.584 211.732 164.032 212.685C166.48 213.638 167.704 216.417 166.763 218.895C165.825 221.372 163.079 222.611 160.627 221.658ZM177.93 221.658C175.482 220.706 174.258 217.927 175.199 215.449C176.141 212.971 178.887 211.732 181.335 212.685C183.783 213.638 185.007 216.417 184.066 218.895C183.128 221.372 180.379 222.611 177.93 221.658ZM195.231 221.658C192.782 220.706 191.558 217.927 192.5 215.449C193.441 212.971 196.187 211.732 198.635 212.685C201.083 213.638 202.308 216.417 201.366 218.895C200.428 221.372 197.682 222.611 195.231 221.658ZM212.534 221.658C210.085 220.706 208.861 217.927 209.803 215.449C210.744 212.971 213.49 211.732 215.938 212.685C218.387 213.638 219.611 216.417 218.669 218.895C217.731 221.372 214.982 222.611 212.534 221.658ZM229.837 221.658C227.388 220.706 226.164 217.927 227.106 215.449C228.047 212.971 230.793 211.732 233.241 212.685C235.69 213.638 236.914 216.417 235.972 218.895C235.031 221.372 232.285 222.611 229.837 221.658ZM247.149 221.634C244.716 220.687 243.498 217.923 244.433 215.461C245.368 212.999 248.099 211.766 250.532 212.713C252.966 213.659 254.184 216.423 253.248 218.885C252.313 221.348 249.582 222.577 247.149 221.634ZM264.677 221.034C262.569 220.215 261.516 217.823 262.325 215.689C263.135 213.556 265.499 212.49 267.607 213.309C269.715 214.128 270.768 216.52 269.959 218.654C269.15 220.788 266.786 221.853 264.677 221.034ZM282.432 219.838C280.976 219.272 280.251 217.622 280.808 216.149C281.367 214.676 282.997 213.942 284.453 214.505C285.909 215.071 286.633 216.721 286.077 218.194C285.521 219.668 283.887 220.401 282.432 219.838ZM299.981 219.184C298.884 218.757 298.333 217.51 298.757 216.399C299.178 215.288 300.412 214.731 301.509 215.16C302.607 215.586 303.158 216.834 302.733 217.945C302.309 219.056 301.082 219.613 299.981 219.184ZM317.315 219.101C316.262 218.694 315.736 217.497 316.139 216.429C316.542 215.364 317.727 214.831 318.779 215.239C319.832 215.65 320.358 216.846 319.955 217.911C319.552 218.98 318.37 219.512 317.315 219.101ZM334.443 219.567C333.138 219.059 332.485 217.577 332.988 216.256C333.49 214.935 334.955 214.274 336.26 214.782C337.565 215.291 338.218 216.773 337.719 218.094C337.213 219.412 335.749 220.072 334.443 219.567ZM351.446 220.355C349.71 219.68 348.841 217.71 349.509 215.951C350.176 214.195 352.122 213.315 353.861 213.991C355.596 214.667 356.465 216.636 355.798 218.395C355.13 220.152 353.181 221.028 351.446 220.355ZM368.49 221.034C366.382 220.215 365.329 217.823 366.138 215.689C366.947 213.556 369.311 212.49 371.419 213.309C373.528 214.128 374.581 216.52 373.771 218.654C372.962 220.788 370.595 221.853 368.49 221.034ZM385.688 221.305C383.432 220.429 382.304 217.866 383.17 215.583C384.037 213.3 386.566 212.159 388.825 213.035C391.081 213.912 392.208 216.472 391.342 218.754C390.476 221.043 387.944 222.182 385.688 221.305ZM402.97 221.36C400.684 220.471 399.544 217.878 400.419 215.565C401.295 213.251 403.86 212.095 406.146 212.983C408.432 213.872 409.572 216.465 408.696 218.779C407.818 221.092 405.256 222.249 402.97 221.36ZM420.27 221.36C417.984 220.471 416.841 217.878 417.719 215.565C418.598 213.251 421.16 212.095 423.446 212.983C425.732 213.872 426.875 216.465 425.997 218.779C425.121 221.092 422.556 222.249 420.27 221.36ZM437.666 221.116C435.513 220.279 434.439 217.835 435.266 215.659C436.093 213.48 438.505 212.393 440.659 213.23C442.809 214.067 443.886 216.508 443.059 218.687C442.232 220.864 439.817 221.95 437.666 221.116ZM455.246 220.383C453.496 219.701 452.62 217.714 453.291 215.942C453.965 214.171 455.929 213.285 457.679 213.963C459.43 214.642 460.305 216.633 459.634 218.404C458.964 220.176 456.997 221.062 455.246 220.383ZM473.033 219.101C471.981 218.694 471.454 217.497 471.857 216.429C472.263 215.364 473.445 214.831 474.498 215.239C475.551 215.65 476.077 216.846 475.674 217.911C475.268 218.98 474.086 219.512 473.033 219.101ZM490.914 217.58C490.691 217.494 490.58 217.242 490.664 217.016C490.751 216.791 490.998 216.679 491.224 216.764C491.446 216.849 491.558 217.105 491.473 217.33C491.386 217.555 491.136 217.668 490.914 217.58ZM4.9116 204.15C2.46336 203.198 1.23924 200.419 2.18064 197.941C3.12204 195.463 5.86804 194.225 8.31628 195.177C10.7645 196.13 11.9886 198.909 11.0472 201.387C10.1058 203.864 7.35984 205.1 4.9116 204.15ZM22.2117 204.15C19.7634 203.198 18.5393 200.419 19.4807 197.941C20.4221 195.463 23.1681 194.225 25.6164 195.177C28.0646 196.13 29.2887 198.909 28.3473 201.387C27.4089 203.864 24.6629 205.1 22.2117 204.15ZM39.5148 204.15C37.0665 203.198 35.8424 200.419 36.7838 197.941C37.7252 195.463 40.4712 194.225 42.9194 195.177C45.3677 196.13 46.5918 198.909 45.6504 201.387C44.712 203.864 41.963 205.1 39.5148 204.15ZM56.8148 204.15C54.3666 203.198 53.1425 200.419 54.0839 197.941C55.0253 195.463 57.7713 194.225 60.2195 195.177C62.6678 196.13 63.8919 198.909 62.9505 201.387C62.0121 203.864 59.2661 205.1 56.8148 204.15ZM74.1179 204.15C71.6697 203.198 70.4456 200.419 71.387 197.941C72.3284 195.463 75.0744 194.225 77.5226 195.177C79.9709 196.13 81.195 198.909 80.2536 201.387C79.3152 203.864 76.5662 205.1 74.1179 204.15ZM91.421 204.15C88.9728 203.198 87.7487 200.419 88.6901 197.941C89.6315 195.463 92.3775 194.225 94.8257 195.177C97.2739 196.13 98.4981 198.909 97.5567 201.387C96.6153 203.864 93.8693 205.1 91.421 204.15ZM108.721 204.15C106.273 203.198 105.049 200.419 105.99 197.941C106.932 195.463 109.678 194.225 112.126 195.177C114.574 196.13 115.798 198.909 114.857 201.387C113.918 203.864 111.172 205.1 108.721 204.15ZM126.024 204.15C123.576 203.198 122.352 200.419 123.293 197.941C124.235 195.463 126.981 194.225 129.429 195.177C131.877 196.13 133.101 198.909 132.16 201.387C131.221 203.864 128.472 205.1 126.024 204.15ZM143.327 204.15C140.879 203.198 139.655 200.419 140.596 197.941C141.538 195.463 144.284 194.225 146.732 195.177C149.18 196.13 150.404 198.909 149.466 201.387C148.522 203.864 145.776 205.1 143.327 204.15ZM160.627 204.15C158.179 203.198 156.955 200.419 157.896 197.941C158.838 195.463 161.584 194.225 164.032 195.177C166.48 196.13 167.704 198.909 166.763 201.387C165.825 203.864 163.079 205.1 160.627 204.15ZM177.93 204.15C175.482 203.198 174.258 200.419 175.199 197.941C176.141 195.463 178.887 194.225 181.335 195.177C183.783 196.13 185.007 198.909 184.066 201.387C183.128 203.864 180.379 205.1 177.93 204.15ZM195.231 204.15C192.782 203.198 191.558 200.419 192.5 197.941C193.441 195.463 196.187 194.225 198.635 195.177C201.083 196.13 202.308 198.909 201.366 201.387C200.428 203.864 197.682 205.1 195.231 204.15ZM212.534 204.15C210.085 203.198 208.861 200.419 209.803 197.941C210.744 195.463 213.49 194.225 215.938 195.177C218.387 196.13 219.611 198.909 218.669 201.387C217.731 203.864 214.982 205.1 212.534 204.15ZM230.113 203.417C228.065 202.619 227.043 200.297 227.828 198.224C228.613 196.151 230.91 195.116 232.959 195.911C235.007 196.705 236.029 199.031 235.244 201.104C234.459 203.176 232.162 204.211 230.113 203.417ZM248.304 201.076C247.531 200.778 247.146 199.901 247.444 199.119C247.738 198.337 248.605 197.947 249.377 198.248C250.15 198.55 250.535 199.423 250.238 200.206C249.94 200.985 249.077 201.377 248.304 201.076ZM266.034 199.621C266.055 199.56 266.124 199.53 266.181 199.554C266.241 199.579 266.269 199.645 266.247 199.703C266.223 199.764 266.157 199.795 266.1 199.77C266.04 199.749 266.013 199.682 266.034 199.621ZM387.095 199.6C387.128 199.509 387.231 199.466 387.318 199.499C387.405 199.533 387.45 199.636 387.417 199.725C387.384 199.816 387.282 199.859 387.195 199.825C387.104 199.792 387.059 199.691 387.095 199.6ZM404.341 199.579C404.386 199.46 404.519 199.399 404.639 199.445C404.759 199.49 404.817 199.627 404.771 199.746C404.726 199.865 404.594 199.926 404.474 199.88C404.353 199.834 404.296 199.697 404.341 199.579ZM421.644 199.579C421.69 199.46 421.822 199.399 421.942 199.445C422.059 199.49 422.12 199.627 422.075 199.746C422.029 199.865 421.897 199.926 421.777 199.88C421.659 199.834 421.599 199.697 421.644 199.579ZM4.9116 186.639C2.46336 185.687 1.23924 182.908 2.18064 180.43C3.12204 177.952 5.86804 176.714 8.31628 177.666C10.7645 178.619 11.9886 181.398 11.0472 183.876C10.1058 186.353 7.35984 187.592 4.9116 186.639ZM22.2117 186.639C19.7634 185.687 18.5393 182.908 19.4807 180.43C20.4221 177.952 23.1681 176.714 25.6164 177.666C28.0646 178.619 29.2887 181.398 28.3473 183.876C27.4089 186.353 24.6629 187.592 22.2117 186.639ZM39.5148 186.639C37.0665 185.687 35.8424 182.908 36.7838 180.43C37.7252 177.952 40.4712 176.714 42.9194 177.666C45.3677 178.619 46.5918 181.398 45.6504 183.876C44.712 186.353 41.963 187.592 39.5148 186.639ZM56.8148 186.639C54.3666 185.687 53.1425 182.908 54.0839 180.43C55.0253 177.952 57.7713 176.714 60.2195 177.666C62.6678 178.619 63.8919 181.398 62.9505 183.876C62.0121 186.353 59.2661 187.592 56.8148 186.639ZM74.1179 186.639C71.6697 185.687 70.4456 182.908 71.387 180.43C72.3284 177.952 75.0744 176.714 77.5226 177.666C79.9709 178.619 81.195 181.398 80.2536 183.876C79.3152 186.353 76.5662 187.592 74.1179 186.639ZM91.421 186.639C88.9728 185.687 87.7487 182.908 88.6901 180.43C89.6315 177.952 92.3775 176.714 94.8257 177.666C97.2739 178.619 98.4981 181.398 97.5567 183.876C96.6153 186.353 93.8693 187.592 91.421 186.639ZM108.721 186.639C106.273 185.687 105.049 182.908 105.99 180.43C106.932 177.952 109.678 176.714 112.126 177.666C114.574 178.619 115.798 181.398 114.857 183.876C113.918 186.353 111.172 187.592 108.721 186.639ZM126.024 186.639C123.576 185.687 122.352 182.908 123.293 180.43C124.235 177.952 126.981 176.714 129.429 177.666C131.877 178.619 133.101 181.398 132.16 183.876C131.221 186.353 128.472 187.592 126.024 186.639ZM143.327 186.639C140.879 185.687 139.655 182.908 140.596 180.43C141.538 177.952 144.284 176.714 146.732 177.666C149.18 178.619 150.404 181.398 149.466 183.876C148.522 186.353 145.776 187.592 143.327 186.639ZM160.627 186.639C158.179 185.687 156.955 182.908 157.896 180.43C158.838 177.952 161.584 176.714 164.032 177.666C166.48 178.619 167.704 181.398 166.763 183.876C165.825 186.353 163.079 187.592 160.627 186.639ZM177.93 186.639C175.482 185.687 174.258 182.908 175.199 180.43C176.141 177.952 178.887 176.714 181.335 177.666C183.783 178.619 185.007 181.398 184.066 183.876C183.128 186.353 180.379 187.592 177.93 186.639ZM195.264 186.56C192.86 185.626 191.657 182.896 192.581 180.464C193.504 178.032 196.202 176.814 198.605 177.749C201.008 178.683 202.211 181.413 201.288 183.845C200.365 186.277 197.667 187.492 195.264 186.56ZM213.286 184.655C211.92 184.125 211.237 182.573 211.764 181.191C212.287 179.809 213.821 179.118 215.186 179.648C216.552 180.177 217.235 181.73 216.711 183.112C216.185 184.494 214.654 185.184 213.286 184.655ZM231.322 182.071C231.368 181.949 231.503 181.891 231.62 181.937C231.738 181.982 231.798 182.119 231.753 182.238C231.707 182.357 231.575 182.418 231.455 182.372C231.338 182.323 231.277 182.189 231.322 182.071ZM4.9116 169.131C2.46336 168.179 1.23924 165.4 2.18064 162.922C3.12204 160.445 5.86804 159.206 8.31628 160.158C10.7645 161.111 11.9886 163.89 11.0472 166.368C10.1058 168.845 7.35984 170.081 4.9116 169.131ZM22.2117 169.131C19.7634 168.179 18.5393 165.4 19.4807 162.922C20.4221 160.445 23.1681 159.206 25.6164 160.158C28.0646 161.111 29.2887 163.89 28.3473 166.368C27.4089 168.845 24.6629 170.081 22.2117 169.131ZM39.5148 169.131C37.0665 168.179 35.8424 165.4 36.7838 162.922C37.7252 160.445 40.4712 159.206 42.9194 160.158C45.3677 161.111 46.5918 163.89 45.6504 166.368C44.712 168.845 41.963 170.081 39.5148 169.131ZM56.8148 169.131C54.3666 168.179 53.1425 165.4 54.0839 162.922C55.0253 160.445 57.7713 159.206 60.2195 160.158C62.6678 161.111 63.8919 163.89 62.9505 166.368C62.0121 168.845 59.2661 170.081 56.8148 169.131ZM74.1179 169.131C71.6697 168.179 70.4456 165.4 71.387 162.922C72.3284 160.445 75.0744 159.206 77.5226 160.158C79.9709 161.111 81.195 163.89 80.2536 166.368C79.3152 168.845 76.5662 170.081 74.1179 169.131ZM91.421 169.131C88.9728 168.179 87.7487 165.4 88.6901 162.922C89.6315 160.445 92.3775 159.206 94.8257 160.158C97.2739 161.111 98.4981 163.89 97.5567 166.368C96.6153 168.845 93.8693 170.081 91.421 169.131ZM108.721 169.131C106.273 168.179 105.049 165.4 105.99 162.922C106.932 160.445 109.678 159.206 112.126 160.158C114.574 161.111 115.798 163.89 114.857 166.368C113.918 168.845 111.172 170.081 108.721 169.131ZM126.024 169.131C123.576 168.179 122.352 165.4 123.293 162.922C124.235 160.445 126.981 159.206 129.429 160.158C131.877 161.111 133.101 163.89 132.16 166.368C131.221 168.845 128.472 170.081 126.024 169.131ZM143.327 169.131C140.879 168.179 139.655 165.4 140.596 162.922C141.538 160.445 144.284 159.206 146.732 160.158C149.18 161.111 150.404 163.89 149.466 166.368C148.522 168.845 145.776 170.081 143.327 169.131ZM160.627 169.131C158.179 168.179 156.955 165.4 157.896 162.922C158.838 160.445 161.584 159.206 164.032 160.158C166.48 161.111 167.704 163.89 166.763 166.368C165.825 168.845 163.079 170.081 160.627 169.131ZM178.168 168.504C176.06 167.686 175.007 165.293 175.816 163.16C176.625 161.026 178.989 159.961 181.098 160.779C183.206 161.598 184.259 163.991 183.45 166.124C182.64 168.258 180.276 169.323 178.168 168.504ZM196.461 165.893C195.778 165.628 195.438 164.852 195.7 164.161C195.961 163.47 196.728 163.126 197.411 163.391C198.094 163.656 198.434 164.432 198.172 165.123C197.907 165.814 197.143 166.161 196.461 165.893ZM5.94323 148.902C4.97777 148.528 4.49655 147.432 4.86649 146.455C5.23643 145.478 6.31919 144.991 7.28465 145.366C8.25011 145.74 8.73133 146.836 8.36139 147.813C7.98844 148.787 6.90568 149.277 5.94323 148.902ZM22.6658 150.424C20.8703 149.727 19.974 147.688 20.6627 145.871C21.3515 144.054 23.3666 143.147 25.1622 143.844C26.9578 144.541 27.8571 146.58 27.1653 148.397C26.4765 150.214 24.4614 151.121 22.6658 150.424ZM39.608 151.377C37.2921 150.476 36.1372 147.849 37.0244 145.506C37.9117 143.162 40.5103 141.993 42.8262 142.891C45.1421 143.792 46.2971 146.419 45.4098 148.762C44.5195 151.106 41.9239 152.275 39.608 151.377ZM56.8148 151.621C54.3666 150.668 53.1425 147.889 54.0839 145.411C55.0253 142.934 57.7713 141.695 60.2195 142.647C62.6678 143.6 63.8919 146.379 62.9505 148.857C62.0121 151.334 59.2661 152.573 56.8148 151.621ZM74.1179 151.621C71.6697 150.668 70.4456 147.889 71.387 145.411C72.3284 142.934 75.0744 141.695 77.5226 142.647C79.9709 143.6 81.195 146.379 80.2536 148.857C79.3152 151.334 76.5662 152.573 74.1179 151.621ZM91.421 151.621C88.9728 150.668 87.7487 147.889 88.6901 145.411C89.6315 142.934 92.3775 141.695 94.8257 142.647C97.2739 143.6 98.4981 146.379 97.5567 148.857C96.6153 151.334 93.8693 152.573 91.421 151.621ZM108.721 151.621C106.273 150.668 105.049 147.889 105.99 145.411C106.932 142.934 109.678 141.695 112.126 142.647C114.574 143.6 115.798 146.379 114.857 148.857C113.918 151.334 111.172 152.573 108.721 151.621ZM126.033 151.593C123.6 150.647 122.382 147.883 123.317 145.42C124.253 142.958 126.984 141.725 129.417 142.672C131.85 143.618 133.068 146.382 132.133 148.845C131.2 151.307 128.469 152.54 126.033 151.593ZM143.532 151.076C141.378 150.239 140.305 147.795 141.132 145.618C141.959 143.439 144.371 142.352 146.524 143.189C148.675 144.026 149.752 146.467 148.925 148.647C148.1 150.826 145.685 151.913 143.532 151.076ZM161.536 149.228C160.393 148.784 159.821 147.487 160.26 146.33C160.7 145.174 161.981 144.596 163.124 145.04C164.267 145.484 164.838 146.781 164.399 147.938C163.96 149.094 162.679 149.67 161.536 149.228ZM179.389 147.04C179.44 146.906 179.591 146.836 179.723 146.887C179.855 146.939 179.925 147.091 179.873 147.225C179.822 147.359 179.672 147.429 179.54 147.378C179.407 147.326 179.338 147.174 179.389 147.04ZM40.9224 129.507C40.9855 129.343 41.169 129.261 41.3314 129.322C41.4938 129.386 41.575 129.571 41.5149 129.736C41.4517 129.9 41.2682 129.982 41.1058 129.921C40.9404 129.857 40.8592 129.675 40.9224 129.507ZM58.1382 130.631C57.5878 130.417 57.3141 129.793 57.5247 129.236C57.7352 128.679 58.3518 128.403 58.9022 128.616C59.4526 128.829 59.7263 129.453 59.5157 130.007C59.3022 130.567 58.6856 130.844 58.1382 130.631ZM75.2007 131.255C74.3104 130.908 73.8653 129.897 74.2082 128.996C74.551 128.095 75.5496 127.645 76.4399 127.992C77.3301 128.339 77.7753 129.349 77.4324 130.25C77.0925 131.151 76.091 131.602 75.2007 131.255ZM92.4406 131.419C91.4601 131.038 90.9729 129.927 91.3488 128.935C91.7248 127.943 92.8226 127.45 93.8031 127.83C94.7836 128.211 95.2708 129.322 94.8949 130.314C94.5189 131.303 93.4211 131.799 92.4406 131.419ZM109.807 131.255C108.917 130.908 108.471 129.897 108.814 128.996C109.157 128.095 110.156 127.645 111.046 127.992C111.936 128.339 112.381 129.349 112.039 130.25C111.696 131.151 110.697 131.602 109.807 131.255ZM127.387 130.521C126.896 130.329 126.653 129.775 126.839 129.279C127.029 128.783 127.576 128.536 128.066 128.725C128.557 128.917 128.8 129.471 128.614 129.967C128.424 130.463 127.877 130.71 127.387 130.521ZM144.921 129.58C144.942 129.52 145.012 129.489 145.069 129.513C145.129 129.538 145.159 129.605 145.135 129.663C145.111 129.724 145.045 129.754 144.988 129.73C144.927 129.708 144.897 129.641 144.921 129.58Z" fill="#78C8D1"/>
<path opacity="0.6" d="M0.267288 0C128.012 10.5151 57.4818 140.514 221.913 141.414C386.344 142.315 461.908 254.368 461.908 254.368H0.267288V0Z" fill="#BCE4E8"/>
<path opacity="0.6" d="M272.185 254.363C245.171 197.303 300.486 174.146 273.472 130.407C246.457 86.667 269.716 44.1504 260.606 30.0654C250.167 13.9266 215.583 46.0356 231.019 101.086C246.455 156.137 211.723 174.146 220.727 201.16C229.732 228.174 219.211 254.363 219.211 254.363H272.185ZM152.617 254.363C152.617 254.363 149.974 227.843 152.617 199.29C155.26 170.736 172.709 159.105 168.48 134.781C164.251 110.457 181.171 88.2502 193.859 98.8263C206.549 109.402 180.639 137.953 194.916 168.621C209.193 199.289 170.063 212.509 198.213 254.363H152.617ZM306.446 254.363C288.826 209.854 328.505 173.455 309.714 140.126C290.923 106.8 307.8 71.2487 320.334 72.1492C343.034 73.7787 317.987 107.343 344.945 150.641C371.904 193.939 330.616 216.753 343.688 254.363H306.446Z" fill="#8FD1D9"/>
</svg>
