<svg width="418" height="344" viewBox="0 0 418 344" fill="none" xmlns="http://www.w3.org/2000/svg">
<path opacity="0.4" d="M418 343.927V208.902C373.154 171.931 315.681 149.722 253.021 149.722C132.252 149.722 30.7547 232.217 1.79395 343.924L418 343.927Z" fill="#A5DAE0"/>
<path opacity="0.4" d="M178.583 148.273C178.471 148.273 178.378 148.183 178.378 148.069C178.378 147.957 178.468 147.864 178.583 147.864C178.694 147.864 178.787 147.954 178.787 148.069C178.783 148.183 178.694 148.273 178.583 148.273ZM192.175 148.93C192.649 148.93 193.036 148.546 193.036 148.069C193.036 147.595 192.652 147.208 192.175 147.208C191.698 147.208 191.314 147.592 191.314 148.069C191.314 148.546 191.702 148.93 192.175 148.93ZM205.768 149.608C206.618 149.608 207.307 148.919 207.307 148.069C207.307 147.218 206.618 146.53 205.768 146.53C204.917 146.53 204.229 147.218 204.229 148.069C204.232 148.919 204.921 149.608 205.768 149.608ZM219.364 150.063C220.461 150.063 221.355 149.174 221.355 148.072C221.355 146.975 220.465 146.081 219.364 146.081C218.262 146.081 217.373 146.971 217.373 148.072C217.373 149.17 218.262 150.063 219.364 150.063ZM232.956 150.357C234.219 150.357 235.241 149.335 235.241 148.072C235.241 146.809 234.219 145.787 232.956 145.787C231.693 145.787 230.671 146.809 230.671 148.072C230.675 149.331 231.697 150.357 232.956 150.357ZM246.552 150.357C247.815 150.357 248.838 149.335 248.838 148.072C248.838 146.809 247.815 145.787 246.552 145.787C245.29 145.787 244.267 146.809 244.267 148.072C244.267 149.331 245.29 150.357 246.552 150.357ZM260.145 150.357C261.408 150.357 262.43 149.335 262.43 148.072C262.43 146.809 261.408 145.787 260.145 145.787C258.882 145.787 257.86 146.809 257.86 148.072C257.863 149.331 258.886 150.357 260.145 150.357ZM273.741 150.221C274.928 150.221 275.89 149.26 275.89 148.072C275.89 146.885 274.928 145.923 273.741 145.923C272.554 145.923 271.592 146.885 271.592 148.072C271.592 149.26 272.554 150.221 273.741 150.221ZM287.333 149.791C288.284 149.791 289.052 149.019 289.052 148.072C289.052 147.125 288.281 146.354 287.333 146.354C286.383 146.354 285.615 147.125 285.615 148.072C285.615 149.019 286.386 149.791 287.333 149.791ZM300.93 149.181C301.543 149.181 302.038 148.686 302.038 148.072C302.038 147.459 301.543 146.964 300.93 146.964C300.316 146.964 299.821 147.459 299.821 148.072C299.821 148.682 300.316 149.181 300.93 149.181ZM314.522 148.503C314.759 148.503 314.953 148.309 314.953 148.072C314.953 147.835 314.759 147.642 314.522 147.642C314.285 147.642 314.092 147.835 314.092 148.072C314.092 148.309 314.285 148.503 314.522 148.503ZM328.14 148.072C328.14 148.061 328.129 148.051 328.118 148.051C328.104 148.051 328.097 148.061 328.097 148.072C328.097 148.087 328.108 148.094 328.118 148.094C328.129 148.094 328.14 148.083 328.14 148.072ZM137.887 161.665C137.887 161.615 137.848 161.575 137.798 161.575C137.748 161.575 137.708 161.615 137.708 161.665C137.708 161.715 137.748 161.754 137.798 161.754C137.848 161.754 137.887 161.715 137.887 161.665ZM151.394 162.752C151.993 162.752 152.481 162.267 152.481 161.665C152.481 161.066 151.997 160.578 151.394 160.578C150.795 160.578 150.307 161.066 150.307 161.665C150.307 162.264 150.791 162.752 151.394 162.752ZM164.986 164.065C166.31 164.065 167.383 162.992 167.383 161.668C167.383 160.345 166.31 159.272 164.986 159.272C163.663 159.272 162.59 160.345 162.59 161.668C162.59 162.989 163.663 164.065 164.986 164.065ZM178.583 164.969C180.405 164.969 181.883 163.491 181.883 161.665C181.883 159.842 180.405 158.364 178.583 158.364C176.757 158.364 175.279 159.842 175.279 161.665C175.279 163.491 176.757 164.969 178.583 164.969ZM192.175 158.138C190.227 158.138 188.649 159.717 188.649 161.668C188.649 163.616 190.227 165.198 192.175 165.198C194.123 165.198 195.705 163.62 195.705 161.668C195.705 159.717 194.123 158.138 192.175 158.138ZM205.768 158.138C203.82 158.138 202.238 159.717 202.238 161.668C202.238 163.616 203.816 165.198 205.768 165.198C207.716 165.198 209.298 163.62 209.298 161.668C209.298 159.717 207.719 158.138 205.768 158.138ZM219.364 158.138C217.416 158.138 215.834 159.717 215.834 161.668C215.834 163.616 217.412 165.198 219.364 165.198C221.312 165.198 222.89 163.62 222.89 161.668C222.89 159.717 221.312 158.138 219.364 158.138ZM232.956 158.138C231.008 158.138 229.426 159.717 229.426 161.668C229.426 163.616 231.005 165.198 232.956 165.198C234.904 165.198 236.486 163.62 236.486 161.668C236.486 159.717 234.908 158.138 232.956 158.138ZM246.552 158.138C244.604 158.138 243.026 159.717 243.026 161.668C243.026 163.616 244.604 165.198 246.552 165.198C248.5 165.198 250.082 163.62 250.082 161.668C250.079 159.717 248.5 158.138 246.552 158.138ZM260.145 158.138C258.197 158.138 256.615 159.717 256.615 161.668C256.615 163.616 258.193 165.198 260.145 165.198C262.093 165.198 263.675 163.62 263.675 161.668C263.675 159.717 262.096 158.138 260.145 158.138ZM273.741 158.138C271.793 158.138 270.211 159.717 270.211 161.668C270.211 163.616 271.789 165.198 273.741 165.198C275.689 165.198 277.267 163.62 277.267 161.668C277.267 159.717 275.689 158.138 273.741 158.138ZM287.333 158.138C285.386 158.138 283.804 159.717 283.804 161.668C283.804 163.616 285.382 165.198 287.333 165.198C289.281 165.198 290.863 163.62 290.863 161.668C290.863 159.717 289.281 158.138 287.333 158.138ZM300.93 158.138C298.982 158.138 297.403 159.717 297.403 161.668C297.403 163.616 298.982 165.198 300.93 165.198C302.878 165.198 304.46 163.62 304.46 161.668C304.456 159.717 302.878 158.138 300.93 158.138ZM314.522 165.101C316.42 165.101 317.959 163.562 317.959 161.665C317.959 159.767 316.42 158.228 314.522 158.228C312.624 158.228 311.085 159.767 311.085 161.665C311.085 163.562 312.624 165.101 314.522 165.101ZM328.118 164.492C329.679 164.492 330.945 163.225 330.945 161.665C330.945 160.104 329.679 158.838 328.118 158.838C326.558 158.838 325.291 160.104 325.291 161.665C325.291 163.225 326.554 164.492 328.118 164.492ZM341.711 163.272C342.597 163.272 343.318 162.554 343.318 161.665C343.318 160.779 342.597 160.058 341.711 160.058C340.825 160.058 340.104 160.775 340.104 161.665C340.107 162.551 340.825 163.272 341.711 163.272ZM355.307 161.98C355.483 161.98 355.623 161.841 355.623 161.665C355.623 161.489 355.483 161.349 355.307 161.349C355.131 161.349 354.991 161.493 354.991 161.665C354.988 161.841 355.131 161.98 355.307 161.98ZM110.677 175.261C110.677 175.225 110.645 175.193 110.609 175.193C110.57 175.193 110.541 175.221 110.541 175.261C110.541 175.297 110.57 175.329 110.609 175.329C110.649 175.325 110.677 175.297 110.677 175.261ZM124.205 176.549C124.916 176.549 125.493 175.971 125.493 175.261C125.493 174.547 124.916 173.973 124.205 173.973C123.491 173.973 122.917 174.551 122.917 175.261C122.914 175.971 123.491 176.549 124.205 176.549ZM137.798 178.246C139.448 178.246 140.782 176.911 140.782 175.261C140.782 173.611 139.444 172.276 137.798 172.276C136.151 172.276 134.813 173.614 134.813 175.261C134.813 176.907 136.148 178.246 137.798 178.246ZM151.394 171.731C149.446 171.731 147.864 173.309 147.864 175.261C147.864 177.209 149.442 178.791 151.394 178.791C153.342 178.791 154.924 177.212 154.924 175.261C154.92 173.309 153.342 171.731 151.394 171.731ZM164.986 171.731C163.039 171.731 161.456 173.309 161.456 175.261C161.456 177.209 163.035 178.791 164.986 178.791C166.934 178.791 168.513 177.212 168.513 175.261C168.516 173.309 166.934 171.731 164.986 171.731ZM178.583 171.731C176.635 171.731 175.053 173.309 175.053 175.261C175.053 177.209 176.631 178.791 178.583 178.791C180.53 178.791 182.109 177.212 182.109 175.261C182.109 173.309 180.53 171.731 178.583 171.731ZM192.175 171.731C190.227 171.731 188.649 173.309 188.649 175.261C188.649 177.209 190.227 178.791 192.175 178.791C194.123 178.791 195.705 177.212 195.705 175.261C195.705 173.309 194.123 171.731 192.175 171.731ZM205.768 171.731C203.82 171.731 202.238 173.309 202.238 175.261C202.238 177.209 203.816 178.791 205.768 178.791C207.716 178.791 209.298 177.212 209.298 175.261C209.298 173.309 207.719 171.731 205.768 171.731ZM219.364 171.731C217.416 171.731 215.834 173.309 215.834 175.261C215.834 177.209 217.412 178.791 219.364 178.791C221.312 178.791 222.89 177.212 222.89 175.261C222.89 173.309 221.312 171.731 219.364 171.731ZM232.956 171.731C231.008 171.731 229.426 173.309 229.426 175.261C229.426 177.209 231.005 178.791 232.956 178.791C234.904 178.791 236.486 177.212 236.486 175.261C236.486 173.309 234.908 171.731 232.956 171.731ZM246.552 171.731C244.604 171.731 243.026 173.309 243.026 175.261C243.026 177.209 244.604 178.791 246.552 178.791C248.5 178.791 250.082 177.212 250.082 175.261C250.079 173.309 248.5 171.731 246.552 171.731ZM260.145 171.731C258.197 171.731 256.615 173.309 256.615 175.261C256.615 177.209 258.193 178.791 260.145 178.791C262.093 178.791 263.675 177.212 263.675 175.261C263.675 173.309 262.096 171.731 260.145 171.731ZM273.741 171.731C271.793 171.731 270.211 173.309 270.211 175.261C270.211 177.209 271.789 178.791 273.741 178.791C275.689 178.791 277.267 177.212 277.267 175.261C277.267 173.309 275.689 171.731 273.741 171.731ZM287.333 171.731C285.386 171.731 283.804 173.309 283.804 175.261C283.804 177.209 285.382 178.791 287.333 178.791C289.281 178.791 290.863 177.212 290.863 175.261C290.863 173.309 289.281 171.731 287.333 171.731ZM300.93 171.731C298.982 171.731 297.403 173.309 297.403 175.261C297.403 177.209 298.982 178.791 300.93 178.791C302.878 178.791 304.46 177.212 304.46 175.261C304.456 173.309 302.878 171.731 300.93 171.731ZM314.522 171.731C312.574 171.731 310.992 173.309 310.992 175.261C310.992 177.209 312.571 178.791 314.522 178.791C316.47 178.791 318.052 177.212 318.052 175.261C318.052 173.309 316.47 171.731 314.522 171.731ZM328.118 171.731C326.17 171.731 324.588 173.309 324.588 175.261C324.588 177.209 326.167 178.791 328.118 178.791C330.066 178.791 331.645 177.212 331.645 175.261C331.645 173.309 330.066 171.731 328.118 171.731ZM341.711 171.731C339.763 171.731 338.181 173.309 338.181 175.261C338.181 177.209 339.759 178.791 341.711 178.791C343.662 178.791 345.241 177.212 345.241 175.261C345.241 173.309 343.659 171.731 341.711 171.731ZM355.307 178.583C357.144 178.583 358.632 177.094 358.632 175.257C358.632 173.421 357.144 171.932 355.307 171.932C353.47 171.932 351.981 173.421 351.981 175.257C351.981 177.094 353.47 178.583 355.307 178.583ZM368.899 177.18C369.961 177.18 370.822 176.319 370.822 175.257C370.822 174.195 369.961 173.334 368.899 173.334C367.838 173.334 366.977 174.195 366.977 175.257C366.977 176.323 367.838 177.18 368.899 177.18ZM382.496 175.577C382.671 175.577 382.811 175.433 382.811 175.261C382.811 175.085 382.671 174.945 382.496 174.945C382.32 174.945 382.18 175.089 382.18 175.261C382.176 175.433 382.32 175.577 382.496 175.577ZM97.0166 189.442C97.3431 189.442 97.6049 189.18 97.6049 188.853C97.6049 188.527 97.3431 188.265 97.0166 188.265C96.6937 188.265 96.4283 188.527 96.4283 188.853C96.4283 189.18 96.6902 189.442 97.0166 189.442ZM110.609 191.522C112.084 191.522 113.278 190.328 113.278 188.853C113.278 187.379 112.084 186.184 110.609 186.184C109.135 186.184 107.94 187.379 107.94 188.853C107.94 190.328 109.135 191.522 110.609 191.522ZM124.205 185.327C122.257 185.327 120.675 186.905 120.675 188.857C120.675 190.805 122.254 192.387 124.205 192.387C126.153 192.387 127.732 190.809 127.732 188.857C127.732 186.905 126.153 185.327 124.205 185.327ZM137.798 185.327C135.85 185.327 134.271 186.905 134.271 188.857C134.271 190.805 135.85 192.387 137.798 192.387C139.746 192.387 141.328 190.809 141.328 188.857C141.328 186.905 139.746 185.327 137.798 185.327ZM151.394 185.327C149.446 185.327 147.864 186.905 147.864 188.857C147.864 190.805 149.442 192.387 151.394 192.387C153.342 192.387 154.924 190.809 154.924 188.857C154.92 186.905 153.342 185.327 151.394 185.327ZM164.986 185.327C163.039 185.327 161.456 186.905 161.456 188.857C161.456 190.805 163.035 192.387 164.986 192.387C166.934 192.387 168.513 190.809 168.513 188.857C168.516 186.905 166.934 185.327 164.986 185.327ZM178.583 185.327C176.635 185.327 175.053 186.905 175.053 188.857C175.053 190.805 176.631 192.387 178.583 192.387C180.53 192.387 182.109 190.809 182.109 188.857C182.109 186.905 180.53 185.327 178.583 185.327ZM192.175 185.327C190.227 185.327 188.649 186.905 188.649 188.857C188.649 190.805 190.227 192.387 192.175 192.387C194.123 192.387 195.705 190.809 195.705 188.857C195.705 186.905 194.123 185.327 192.175 185.327ZM205.768 185.327C203.82 185.327 202.238 186.905 202.238 188.857C202.238 190.805 203.816 192.387 205.768 192.387C207.716 192.387 209.298 190.809 209.298 188.857C209.298 186.905 207.719 185.327 205.768 185.327ZM219.364 185.327C217.416 185.327 215.834 186.905 215.834 188.857C215.834 190.805 217.412 192.387 219.364 192.387C221.312 192.387 222.89 190.809 222.89 188.857C222.89 186.905 221.312 185.327 219.364 185.327ZM232.956 185.327C231.008 185.327 229.426 186.905 229.426 188.857C229.426 190.805 231.005 192.387 232.956 192.387C234.904 192.387 236.486 190.809 236.486 188.857C236.486 186.905 234.908 185.327 232.956 185.327ZM246.552 185.327C244.604 185.327 243.026 186.905 243.026 188.857C243.026 190.805 244.604 192.387 246.552 192.387C248.5 192.387 250.082 190.809 250.082 188.857C250.079 186.905 248.5 185.327 246.552 185.327ZM260.145 185.327C258.197 185.327 256.615 186.905 256.615 188.857C256.615 190.805 258.193 192.387 260.145 192.387C262.093 192.387 263.675 190.809 263.675 188.857C263.675 186.905 262.096 185.327 260.145 185.327ZM273.741 185.327C271.793 185.327 270.211 186.905 270.211 188.857C270.211 190.805 271.789 192.387 273.741 192.387C275.689 192.387 277.267 190.809 277.267 188.857C277.267 186.905 275.689 185.327 273.741 185.327ZM287.333 185.327C285.386 185.327 283.804 186.905 283.804 188.857C283.804 190.805 285.382 192.387 287.333 192.387C289.281 192.387 290.863 190.809 290.863 188.857C290.863 186.905 289.281 185.327 287.333 185.327ZM300.93 185.327C298.982 185.327 297.403 186.905 297.403 188.857C297.403 190.805 298.982 192.387 300.93 192.387C302.878 192.387 304.46 190.809 304.46 188.857C304.456 186.905 302.878 185.327 300.93 185.327ZM314.522 185.327C312.574 185.327 310.992 186.905 310.992 188.857C310.992 190.805 312.571 192.387 314.522 192.387C316.47 192.387 318.052 190.809 318.052 188.857C318.052 186.905 316.47 185.327 314.522 185.327ZM328.118 185.327C326.17 185.327 324.588 186.905 324.588 188.857C324.588 190.805 326.167 192.387 328.118 192.387C330.066 192.387 331.645 190.809 331.645 188.857C331.645 186.905 330.066 185.327 328.118 185.327ZM341.711 185.327C339.763 185.327 338.181 186.905 338.181 188.857C338.181 190.805 339.759 192.387 341.711 192.387C343.662 192.387 345.241 190.809 345.241 188.857C345.241 186.905 343.659 185.327 341.711 185.327ZM355.307 185.327C353.359 185.327 351.78 186.905 351.78 188.857C351.78 190.805 353.359 192.387 355.307 192.387C357.255 192.387 358.837 190.809 358.837 188.857C358.833 186.905 357.255 185.327 355.307 185.327ZM368.899 185.327C366.951 185.327 365.37 186.905 365.37 188.857C365.37 190.805 366.948 192.387 368.899 192.387C370.847 192.387 372.429 190.809 372.429 188.857C372.429 186.905 370.847 185.327 368.899 185.327ZM382.496 192.043C384.257 192.043 385.685 190.615 385.685 188.853C385.685 187.092 384.257 185.664 382.496 185.664C380.734 185.664 379.306 187.092 379.306 188.853C379.306 190.615 380.734 192.043 382.496 192.043ZM396.088 190.166C396.813 190.166 397.401 189.578 397.401 188.853C397.401 188.129 396.813 187.54 396.088 187.54C395.363 187.54 394.775 188.129 394.775 188.853C394.775 189.578 395.363 190.166 396.088 190.166ZM409.706 188.853C409.706 188.843 409.695 188.832 409.684 188.832C409.673 188.832 409.663 188.843 409.663 188.853C409.663 188.868 409.673 188.875 409.684 188.875C409.695 188.875 409.706 188.868 409.706 188.853ZM83.4206 203.648C84.0842 203.648 84.6187 203.11 84.6187 202.45C84.6187 201.786 84.0806 201.251 83.4206 201.251C82.7569 201.251 82.2223 201.789 82.2223 202.45C82.2223 203.11 82.7605 203.648 83.4206 203.648ZM97.0166 205.75C98.839 205.75 100.321 204.272 100.321 202.446C100.321 200.624 98.8426 199.146 97.0166 199.146C95.1942 199.146 93.7127 200.624 93.7127 202.446C93.7127 204.272 95.1906 205.75 97.0166 205.75ZM110.609 198.92C108.661 198.92 107.079 200.498 107.079 202.45C107.079 204.397 108.658 205.98 110.609 205.98C112.557 205.98 114.136 204.401 114.136 202.45C114.139 200.498 112.557 198.92 110.609 198.92ZM124.205 198.92C122.257 198.92 120.675 200.498 120.675 202.45C120.675 204.397 122.254 205.98 124.205 205.98C126.153 205.98 127.732 204.401 127.732 202.45C127.732 200.498 126.153 198.92 124.205 198.92ZM137.798 198.92C135.85 198.92 134.271 200.498 134.271 202.45C134.271 204.397 135.85 205.98 137.798 205.98C139.746 205.98 141.328 204.401 141.328 202.45C141.328 200.498 139.746 198.92 137.798 198.92ZM151.394 198.92C149.446 198.92 147.864 200.498 147.864 202.45C147.864 204.397 149.442 205.98 151.394 205.98C153.342 205.98 154.924 204.401 154.924 202.45C154.92 200.498 153.342 198.92 151.394 198.92ZM164.986 198.92C163.039 198.92 161.456 200.498 161.456 202.45C161.456 204.397 163.035 205.98 164.986 205.98C166.934 205.98 168.513 204.401 168.513 202.45C168.516 200.498 166.934 198.92 164.986 198.92ZM178.583 198.92C176.635 198.92 175.053 200.498 175.053 202.45C175.053 204.397 176.631 205.98 178.583 205.98C180.53 205.98 182.109 204.401 182.109 202.45C182.109 200.498 180.53 198.92 178.583 198.92ZM192.175 198.92C190.227 198.92 188.649 200.498 188.649 202.45C188.649 204.397 190.227 205.98 192.175 205.98C194.123 205.98 195.705 204.401 195.705 202.45C195.705 200.498 194.123 198.92 192.175 198.92ZM205.768 198.92C203.82 198.92 202.238 200.498 202.238 202.45C202.238 204.397 203.816 205.98 205.768 205.98C207.716 205.98 209.298 204.401 209.298 202.45C209.298 200.498 207.719 198.92 205.768 198.92ZM219.364 198.92C217.416 198.92 215.834 200.498 215.834 202.45C215.834 204.397 217.412 205.98 219.364 205.98C221.312 205.98 222.89 204.401 222.89 202.45C222.89 200.498 221.312 198.92 219.364 198.92ZM232.956 198.92C231.008 198.92 229.426 200.498 229.426 202.45C229.426 204.397 231.005 205.98 232.956 205.98C234.904 205.98 236.486 204.401 236.486 202.45C236.486 200.498 234.908 198.92 232.956 198.92ZM246.552 198.92C244.604 198.92 243.026 200.498 243.026 202.45C243.026 204.397 244.604 205.98 246.552 205.98C248.5 205.98 250.082 204.401 250.082 202.45C250.079 200.498 248.5 198.92 246.552 198.92ZM260.145 198.92C258.197 198.92 256.615 200.498 256.615 202.45C256.615 204.397 258.193 205.98 260.145 205.98C262.093 205.98 263.675 204.401 263.675 202.45C263.675 200.498 262.096 198.92 260.145 198.92ZM273.741 198.92C271.793 198.92 270.211 200.498 270.211 202.45C270.211 204.397 271.789 205.98 273.741 205.98C275.689 205.98 277.267 204.401 277.267 202.45C277.267 200.498 275.689 198.92 273.741 198.92ZM287.333 198.92C285.386 198.92 283.804 200.498 283.804 202.45C283.804 204.397 285.382 205.98 287.333 205.98C289.281 205.98 290.863 204.401 290.863 202.45C290.863 200.498 289.281 198.92 287.333 198.92ZM300.93 198.92C298.982 198.92 297.403 200.498 297.403 202.45C297.403 204.397 298.982 205.98 300.93 205.98C302.878 205.98 304.46 204.401 304.46 202.45C304.456 200.498 302.878 198.92 300.93 198.92ZM314.522 198.92C312.574 198.92 310.992 200.498 310.992 202.45C310.992 204.397 312.571 205.98 314.522 205.98C316.47 205.98 318.052 204.401 318.052 202.45C318.052 200.498 316.47 198.92 314.522 198.92ZM328.118 198.92C326.17 198.92 324.588 200.498 324.588 202.45C324.588 204.397 326.167 205.98 328.118 205.98C330.066 205.98 331.645 204.401 331.645 202.45C331.645 200.498 330.066 198.92 328.118 198.92ZM341.711 198.92C339.763 198.92 338.181 200.498 338.181 202.45C338.181 204.397 339.759 205.98 341.711 205.98C343.662 205.98 345.241 204.401 345.241 202.45C345.241 200.498 343.659 198.92 341.711 198.92ZM355.307 198.92C353.359 198.92 351.78 200.498 351.78 202.45C351.78 204.397 353.359 205.98 355.307 205.98C357.255 205.98 358.837 204.401 358.837 202.45C358.833 200.498 357.255 198.92 355.307 198.92ZM368.899 198.92C366.951 198.92 365.37 200.498 365.37 202.45C365.37 204.397 366.948 205.98 368.899 205.98C370.847 205.98 372.429 204.401 372.429 202.45C372.429 200.498 370.847 198.92 368.899 198.92ZM382.496 198.92C380.548 198.92 378.966 200.498 378.966 202.45C378.966 204.397 380.544 205.98 382.496 205.98C384.443 205.98 386.022 204.401 386.022 202.45C386.022 200.498 384.443 198.92 382.496 198.92ZM396.088 205.954C398.025 205.954 399.593 204.383 399.593 202.45C399.593 200.512 398.022 198.945 396.088 198.945C394.154 198.945 392.583 200.516 392.583 202.45C392.583 204.383 394.151 205.954 396.088 205.954ZM409.684 204.505C410.821 204.505 411.743 203.583 411.743 202.446C411.743 201.309 410.821 200.387 409.684 200.387C408.547 200.387 407.625 201.309 407.625 202.446C407.625 203.583 408.547 204.505 409.684 204.505ZM56.257 216.042C56.257 216.031 56.2463 216.02 56.2355 216.02C56.2247 216.02 56.2139 216.031 56.2139 216.042C56.2139 216.056 56.2247 216.064 56.2355 216.064C56.2463 216.064 56.257 216.056 56.257 216.042ZM69.828 217.649C70.7141 217.649 71.4352 216.932 71.4352 216.042C71.4352 215.156 70.7177 214.435 69.828 214.435C68.942 214.435 68.2209 215.152 68.2209 216.042C68.2209 216.928 68.9384 217.649 69.828 217.649ZM83.4206 219.525C85.3434 219.525 86.9038 217.965 86.9038 216.042C86.9038 214.119 85.3434 212.559 83.4206 212.559C81.4977 212.559 79.9372 214.119 79.9372 216.042C79.9372 217.965 81.4977 219.525 83.4206 219.525ZM97.0166 212.516C95.0687 212.516 93.4902 214.094 93.4902 216.042C93.4902 217.99 95.0687 219.572 97.0166 219.572C98.9645 219.572 100.547 217.994 100.547 216.042C100.543 214.094 98.9645 212.516 97.0166 212.516ZM110.609 212.516C108.661 212.516 107.079 214.094 107.079 216.042C107.079 217.99 108.658 219.572 110.609 219.572C112.557 219.572 114.136 217.994 114.136 216.042C114.139 214.094 112.557 212.516 110.609 212.516ZM124.205 212.516C122.257 212.516 120.675 214.094 120.675 216.042C120.675 217.99 122.254 219.572 124.205 219.572C126.153 219.572 127.732 217.994 127.732 216.042C127.732 214.094 126.153 212.516 124.205 212.516ZM137.798 212.516C135.85 212.516 134.271 214.094 134.271 216.042C134.271 217.99 135.85 219.572 137.798 219.572C139.746 219.572 141.328 217.994 141.328 216.042C141.328 214.094 139.746 212.516 137.798 212.516ZM151.394 212.516C149.446 212.516 147.864 214.094 147.864 216.042C147.864 217.99 149.442 219.572 151.394 219.572C153.342 219.572 154.924 217.994 154.924 216.042C154.92 214.094 153.342 212.516 151.394 212.516ZM164.986 212.516C163.039 212.516 161.456 214.094 161.456 216.042C161.456 217.99 163.035 219.572 164.986 219.572C166.934 219.572 168.513 217.994 168.513 216.042C168.516 214.094 166.934 212.516 164.986 212.516ZM178.583 212.516C176.635 212.516 175.053 214.094 175.053 216.042C175.053 217.99 176.631 219.572 178.583 219.572C180.53 219.572 182.109 217.994 182.109 216.042C182.109 214.094 180.53 212.516 178.583 212.516ZM192.175 212.516C190.227 212.516 188.649 214.094 188.649 216.042C188.649 217.99 190.227 219.572 192.175 219.572C194.123 219.572 195.705 217.994 195.705 216.042C195.705 214.094 194.123 212.516 192.175 212.516ZM205.768 212.516C203.82 212.516 202.238 214.094 202.238 216.042C202.238 217.99 203.816 219.572 205.768 219.572C207.716 219.572 209.298 217.994 209.298 216.042C209.298 214.094 207.719 212.516 205.768 212.516ZM219.364 212.516C217.416 212.516 215.834 214.094 215.834 216.042C215.834 217.99 217.412 219.572 219.364 219.572C221.312 219.572 222.89 217.994 222.89 216.042C222.89 214.094 221.312 212.516 219.364 212.516ZM232.956 212.516C231.008 212.516 229.426 214.094 229.426 216.042C229.426 217.99 231.005 219.572 232.956 219.572C234.904 219.572 236.486 217.994 236.486 216.042C236.486 214.094 234.908 212.516 232.956 212.516ZM246.552 212.516C244.604 212.516 243.026 214.094 243.026 216.042C243.026 217.99 244.604 219.572 246.552 219.572C248.5 219.572 250.082 217.994 250.082 216.042C250.079 214.094 248.5 212.516 246.552 212.516ZM260.145 212.516C258.197 212.516 256.615 214.094 256.615 216.042C256.615 217.99 258.193 219.572 260.145 219.572C262.093 219.572 263.675 217.994 263.675 216.042C263.675 214.094 262.096 212.516 260.145 212.516ZM273.741 212.516C271.793 212.516 270.211 214.094 270.211 216.042C270.211 217.99 271.789 219.572 273.741 219.572C275.689 219.572 277.267 217.994 277.267 216.042C277.267 214.094 275.689 212.516 273.741 212.516ZM287.333 212.516C285.386 212.516 283.804 214.094 283.804 216.042C283.804 217.99 285.382 219.572 287.333 219.572C289.281 219.572 290.863 217.994 290.863 216.042C290.863 214.094 289.281 212.516 287.333 212.516ZM300.93 212.516C298.982 212.516 297.403 214.094 297.403 216.042C297.403 217.99 298.982 219.572 300.93 219.572C302.878 219.572 304.46 217.994 304.46 216.042C304.456 214.094 302.878 212.516 300.93 212.516ZM314.522 212.516C312.574 212.516 310.992 214.094 310.992 216.042C310.992 217.99 312.571 219.572 314.522 219.572C316.47 219.572 318.052 217.994 318.052 216.042C318.052 214.094 316.47 212.516 314.522 212.516ZM328.118 212.516C326.17 212.516 324.588 214.094 324.588 216.042C324.588 217.99 326.167 219.572 328.118 219.572C330.066 219.572 331.645 217.994 331.645 216.042C331.645 214.094 330.066 212.516 328.118 212.516ZM341.711 212.516C339.763 212.516 338.181 214.094 338.181 216.042C338.181 217.99 339.759 219.572 341.711 219.572C343.662 219.572 345.241 217.994 345.241 216.042C345.241 214.094 343.659 212.516 341.711 212.516ZM355.307 212.516C353.359 212.516 351.78 214.094 351.78 216.042C351.78 217.99 353.359 219.572 355.307 219.572C357.255 219.572 358.837 217.994 358.837 216.042C358.833 214.094 357.255 212.516 355.307 212.516ZM368.899 212.516C366.951 212.516 365.37 214.094 365.37 216.042C365.37 217.99 366.948 219.572 368.899 219.572C370.847 219.572 372.429 217.994 372.429 216.042C372.429 214.094 370.847 212.516 368.899 212.516ZM382.496 212.516C380.548 212.516 378.966 214.094 378.966 216.042C378.966 217.99 380.544 219.572 382.496 219.572C384.443 219.572 386.022 217.994 386.022 216.042C386.022 214.094 384.443 212.516 382.496 212.516ZM396.088 212.516C394.14 212.516 392.562 214.094 392.562 216.042C392.562 217.99 394.14 219.572 396.088 219.572C398.036 219.572 399.618 217.994 399.618 216.042C399.618 214.094 398.036 212.516 396.088 212.516ZM409.684 219.095C411.37 219.095 412.737 217.728 412.737 216.042C412.737 214.356 411.37 212.989 409.684 212.989C407.998 212.989 406.631 214.356 406.631 216.042C406.631 217.728 407.995 219.095 409.684 219.095ZM56.2319 231.174C57.0821 231.174 57.7709 230.485 57.7709 229.635C57.7709 228.784 57.0821 228.096 56.2319 228.096C55.3817 228.096 54.693 228.784 54.693 229.635C54.6966 230.485 55.3817 231.174 56.2319 231.174ZM69.828 233.143C71.7652 233.143 73.3329 231.572 73.3329 229.638C73.3329 227.701 71.7616 226.133 69.828 226.133C67.8909 226.133 66.3231 227.705 66.3231 229.638C66.3195 231.572 67.8909 233.143 69.828 233.143ZM83.4206 226.108C81.4726 226.108 79.8942 227.687 79.8942 229.638C79.8942 231.586 81.4726 233.168 83.4206 233.168C85.3685 233.168 86.9505 231.59 86.9505 229.638C86.9505 227.687 85.3685 226.108 83.4206 226.108ZM97.0166 226.108C95.0687 226.108 93.4902 227.687 93.4902 229.638C93.4902 231.586 95.0687 233.168 97.0166 233.168C98.9645 233.168 100.547 231.59 100.547 229.638C100.543 227.687 98.9645 226.108 97.0166 226.108ZM110.609 226.108C108.661 226.108 107.079 227.687 107.079 229.638C107.079 231.586 108.658 233.168 110.609 233.168C112.557 233.168 114.136 231.59 114.136 229.638C114.139 227.687 112.557 226.108 110.609 226.108ZM124.205 226.108C122.257 226.108 120.675 227.687 120.675 229.638C120.675 231.586 122.254 233.168 124.205 233.168C126.153 233.168 127.732 231.59 127.732 229.638C127.732 227.687 126.153 226.108 124.205 226.108ZM137.798 226.108C135.85 226.108 134.271 227.687 134.271 229.638C134.271 231.586 135.85 233.168 137.798 233.168C139.746 233.168 141.328 231.59 141.328 229.638C141.328 227.687 139.746 226.108 137.798 226.108ZM151.394 226.108C149.446 226.108 147.864 227.687 147.864 229.638C147.864 231.586 149.442 233.168 151.394 233.168C153.342 233.168 154.924 231.59 154.924 229.638C154.92 227.687 153.342 226.108 151.394 226.108ZM164.986 226.108C163.039 226.108 161.456 227.687 161.456 229.638C161.456 231.586 163.035 233.168 164.986 233.168C166.934 233.168 168.513 231.59 168.513 229.638C168.516 227.687 166.934 226.108 164.986 226.108ZM178.583 226.108C176.635 226.108 175.053 227.687 175.053 229.638C175.053 231.586 176.631 233.168 178.583 233.168C180.53 233.168 182.109 231.59 182.109 229.638C182.109 227.687 180.53 226.108 178.583 226.108ZM192.175 226.108C190.227 226.108 188.649 227.687 188.649 229.638C188.649 231.586 190.227 233.168 192.175 233.168C194.123 233.168 195.705 231.59 195.705 229.638C195.705 227.687 194.123 226.108 192.175 226.108ZM205.768 226.108C203.82 226.108 202.238 227.687 202.238 229.638C202.238 231.586 203.816 233.168 205.768 233.168C207.716 233.168 209.298 231.59 209.298 229.638C209.298 227.687 207.719 226.108 205.768 226.108ZM219.364 226.108C217.416 226.108 215.834 227.687 215.834 229.638C215.834 231.586 217.412 233.168 219.364 233.168C221.312 233.168 222.89 231.59 222.89 229.638C222.89 227.687 221.312 226.108 219.364 226.108ZM232.956 226.108C231.008 226.108 229.426 227.687 229.426 229.638C229.426 231.586 231.005 233.168 232.956 233.168C234.904 233.168 236.486 231.59 236.486 229.638C236.486 227.687 234.908 226.108 232.956 226.108ZM246.552 226.108C244.604 226.108 243.026 227.687 243.026 229.638C243.026 231.586 244.604 233.168 246.552 233.168C248.5 233.168 250.082 231.59 250.082 229.638C250.079 227.687 248.5 226.108 246.552 226.108ZM260.145 226.108C258.197 226.108 256.615 227.687 256.615 229.638C256.615 231.586 258.193 233.168 260.145 233.168C262.093 233.168 263.675 231.59 263.675 229.638C263.675 227.687 262.096 226.108 260.145 226.108ZM273.741 226.108C271.793 226.108 270.211 227.687 270.211 229.638C270.211 231.586 271.789 233.168 273.741 233.168C275.689 233.168 277.267 231.59 277.267 229.638C277.267 227.687 275.689 226.108 273.741 226.108ZM287.333 226.108C285.386 226.108 283.804 227.687 283.804 229.638C283.804 231.586 285.382 233.168 287.333 233.168C289.281 233.168 290.863 231.59 290.863 229.638C290.863 227.687 289.281 226.108 287.333 226.108ZM300.93 226.108C298.982 226.108 297.403 227.687 297.403 229.638C297.403 231.586 298.982 233.168 300.93 233.168C302.878 233.168 304.46 231.59 304.46 229.638C304.456 227.687 302.878 226.108 300.93 226.108ZM314.522 226.108C312.574 226.108 310.992 227.687 310.992 229.638C310.992 231.586 312.571 233.168 314.522 233.168C316.47 233.168 318.052 231.59 318.052 229.638C318.052 227.687 316.47 226.108 314.522 226.108ZM328.118 226.108C326.17 226.108 324.588 227.687 324.588 229.638C324.588 231.586 326.167 233.168 328.118 233.168C330.066 233.168 331.645 231.59 331.645 229.638C331.645 227.687 330.066 226.108 328.118 226.108ZM341.711 226.108C339.763 226.108 338.181 227.687 338.181 229.638C338.181 231.586 339.759 233.168 341.711 233.168C343.662 233.168 345.241 231.59 345.241 229.638C345.241 227.687 343.659 226.108 341.711 226.108ZM355.307 226.108C353.359 226.108 351.78 227.687 351.78 229.638C351.78 231.586 353.359 233.168 355.307 233.168C357.255 233.168 358.837 231.59 358.837 229.638C358.833 227.687 357.255 226.108 355.307 226.108ZM368.899 226.108C366.951 226.108 365.37 227.687 365.37 229.638C365.37 231.586 366.948 233.168 368.899 233.168C370.847 233.168 372.429 231.59 372.429 229.638C372.429 227.687 370.847 226.108 368.899 226.108ZM382.496 226.108C380.548 226.108 378.966 227.687 378.966 229.638C378.966 231.586 380.544 233.168 382.496 233.168C384.443 233.168 386.022 231.59 386.022 229.638C386.022 227.687 384.443 226.108 382.496 226.108ZM396.088 226.108C394.14 226.108 392.562 227.687 392.562 229.638C392.562 231.586 394.14 233.168 396.088 233.168C398.036 233.168 399.618 231.59 399.618 229.638C399.618 227.687 398.036 226.108 396.088 226.108ZM409.684 226.582C407.998 226.582 406.631 227.949 406.631 229.635C406.631 231.321 407.998 232.687 409.684 232.687C411.37 232.687 412.737 231.321 412.737 229.635C412.737 227.949 411.37 226.582 409.684 226.582ZM42.6394 244.293C43.2277 244.293 43.7012 243.815 43.7012 243.231C43.7012 242.642 43.2241 242.169 42.6394 242.169C42.0546 242.169 41.5775 242.646 41.5775 243.231C41.574 243.819 42.051 244.293 42.6394 244.293ZM56.2319 246.693C58.144 246.693 59.6937 245.143 59.6937 243.231C59.6937 241.319 58.144 239.769 56.2319 239.769C54.3198 239.769 52.7701 241.319 52.7701 243.231C52.7737 245.143 54.3198 246.693 56.2319 246.693ZM69.828 239.701C67.8801 239.701 66.298 241.279 66.298 243.231C66.298 245.179 67.8765 246.757 69.828 246.757C71.776 246.757 73.3544 245.179 73.3544 243.231C73.3544 241.283 71.776 239.701 69.828 239.701ZM83.4206 239.701C81.4726 239.701 79.8942 241.279 79.8942 243.231C79.8942 245.179 81.4726 246.757 83.4206 246.757C85.3685 246.757 86.9505 245.179 86.9505 243.231C86.9505 241.283 85.3685 239.701 83.4206 239.701ZM97.0166 239.701C95.0687 239.701 93.4902 241.279 93.4902 243.231C93.4902 245.179 95.0687 246.757 97.0166 246.757C98.9645 246.757 100.547 245.179 100.547 243.231C100.543 241.283 98.9645 239.701 97.0166 239.701ZM110.609 239.701C108.661 239.701 107.079 241.279 107.079 243.231C107.079 245.179 108.658 246.757 110.609 246.757C112.557 246.757 114.136 245.179 114.136 243.231C114.139 241.283 112.557 239.701 110.609 239.701ZM124.205 239.701C122.257 239.701 120.675 241.279 120.675 243.231C120.675 245.179 122.254 246.757 124.205 246.757C126.153 246.757 127.732 245.179 127.732 243.231C127.732 241.283 126.153 239.701 124.205 239.701ZM137.798 239.701C135.85 239.701 134.271 241.279 134.271 243.231C134.271 245.179 135.85 246.757 137.798 246.757C139.746 246.757 141.328 245.179 141.328 243.231C141.328 241.283 139.746 239.701 137.798 239.701ZM151.394 239.701C149.446 239.701 147.864 241.279 147.864 243.231C147.864 245.179 149.442 246.757 151.394 246.757C153.342 246.757 154.924 245.179 154.924 243.231C154.92 241.283 153.342 239.701 151.394 239.701ZM164.986 239.701C163.039 239.701 161.456 241.279 161.456 243.231C161.456 245.179 163.035 246.757 164.986 246.757C166.934 246.757 168.513 245.179 168.513 243.231C168.516 241.283 166.934 239.701 164.986 239.701ZM178.583 239.701C176.635 239.701 175.053 241.279 175.053 243.231C175.053 245.179 176.631 246.757 178.583 246.757C180.53 246.757 182.109 245.179 182.109 243.231C182.109 241.283 180.53 239.701 178.583 239.701ZM192.175 239.701C190.227 239.701 188.649 241.279 188.649 243.231C188.649 245.179 190.227 246.757 192.175 246.757C194.123 246.757 195.705 245.179 195.705 243.231C195.705 241.283 194.123 239.701 192.175 239.701ZM205.768 239.701C203.82 239.701 202.238 241.279 202.238 243.231C202.238 245.179 203.816 246.757 205.768 246.757C207.716 246.757 209.298 245.179 209.298 243.231C209.298 241.283 207.719 239.701 205.768 239.701ZM219.364 239.701C217.416 239.701 215.834 241.279 215.834 243.231C215.834 245.179 217.412 246.757 219.364 246.757C221.312 246.757 222.89 245.179 222.89 243.231C222.89 241.283 221.312 239.701 219.364 239.701ZM232.956 239.701C231.008 239.701 229.426 241.279 229.426 243.231C229.426 245.179 231.005 246.757 232.956 246.757C234.904 246.757 236.486 245.179 236.486 243.231C236.486 241.283 234.908 239.701 232.956 239.701ZM246.552 239.701C244.604 239.701 243.026 241.279 243.026 243.231C243.026 245.179 244.604 246.757 246.552 246.757C248.5 246.757 250.082 245.179 250.082 243.231C250.079 241.283 248.5 239.701 246.552 239.701ZM260.145 239.701C258.197 239.701 256.615 241.279 256.615 243.231C256.615 245.179 258.193 246.757 260.145 246.757C262.093 246.757 263.675 245.179 263.675 243.231C263.675 241.283 262.096 239.701 260.145 239.701ZM273.741 239.701C271.793 239.701 270.211 241.279 270.211 243.231C270.211 245.179 271.789 246.757 273.741 246.757C275.689 246.757 277.267 245.179 277.267 243.231C277.267 241.283 275.689 239.701 273.741 239.701ZM287.333 239.701C285.386 239.701 283.804 241.279 283.804 243.231C283.804 245.179 285.382 246.757 287.333 246.757C289.281 246.757 290.863 245.179 290.863 243.231C290.863 241.283 289.281 239.701 287.333 239.701ZM300.93 239.701C298.982 239.701 297.403 241.279 297.403 243.231C297.403 245.179 298.982 246.757 300.93 246.757C302.878 246.757 304.46 245.179 304.46 243.231C304.456 241.283 302.878 239.701 300.93 239.701ZM314.522 239.701C312.574 239.701 310.992 241.279 310.992 243.231C310.992 245.179 312.571 246.757 314.522 246.757C316.47 246.757 318.052 245.179 318.052 243.231C318.052 241.283 316.47 239.701 314.522 239.701ZM328.118 239.701C326.17 239.701 324.588 241.279 324.588 243.231C324.588 245.179 326.167 246.757 328.118 246.757C330.066 246.757 331.645 245.179 331.645 243.231C331.645 241.283 330.066 239.701 328.118 239.701ZM341.711 239.701C339.763 239.701 338.181 241.279 338.181 243.231C338.181 245.179 339.759 246.757 341.711 246.757C343.662 246.757 345.241 245.179 345.241 243.231C345.241 241.283 343.659 239.701 341.711 239.701ZM355.307 239.701C353.359 239.701 351.78 241.279 351.78 243.231C351.78 245.179 353.359 246.757 355.307 246.757C357.255 246.757 358.837 245.179 358.837 243.231C358.833 241.283 357.255 239.701 355.307 239.701ZM368.899 239.701C366.951 239.701 365.37 241.279 365.37 243.231C365.37 245.179 366.948 246.757 368.899 246.757C370.847 246.757 372.429 245.179 372.429 243.231C372.429 241.283 370.847 239.701 368.899 239.701ZM382.496 239.701C380.548 239.701 378.966 241.279 378.966 243.231C378.966 245.179 380.544 246.757 382.496 246.757C384.443 246.757 386.022 245.179 386.022 243.231C386.022 241.283 384.443 239.701 382.496 239.701ZM396.088 239.701C394.14 239.701 392.562 241.279 392.562 243.231C392.562 245.179 394.14 246.757 396.088 246.757C398.036 246.757 399.618 245.179 399.618 243.231C399.618 241.283 398.036 239.701 396.088 239.701ZM409.684 240.178C407.998 240.178 406.631 241.545 406.631 243.231C406.631 244.917 407.998 246.284 409.684 246.284C411.37 246.284 412.737 244.917 412.737 243.231C412.737 241.545 411.37 240.178 409.684 240.178ZM29.0432 257.232C29.2692 257.232 29.4486 257.049 29.4486 256.823C29.4486 256.597 29.2656 256.418 29.0432 256.418C28.8172 256.418 28.6379 256.601 28.6379 256.823C28.6379 257.049 28.8208 257.232 29.0432 257.232ZM42.6394 260.081C44.4366 260.081 45.8967 258.624 45.8967 256.823C45.8967 255.026 44.4402 253.566 42.6394 253.566C40.8385 253.566 39.3821 255.022 39.3821 256.823C39.3821 258.624 40.8385 260.081 42.6394 260.081ZM56.2319 253.297C54.284 253.297 52.7019 254.875 52.7019 256.827C52.7019 258.775 54.2804 260.357 56.2319 260.357C58.1798 260.357 59.7619 258.778 59.7619 256.827C59.7619 254.875 58.1798 253.297 56.2319 253.297ZM69.828 253.297C67.8801 253.297 66.298 254.875 66.298 256.827C66.298 258.775 67.8765 260.357 69.828 260.357C71.776 260.357 73.3544 258.778 73.3544 256.827C73.3544 254.875 71.776 253.297 69.828 253.297ZM83.4206 253.297C81.4726 253.297 79.8942 254.875 79.8942 256.827C79.8942 258.775 81.4726 260.357 83.4206 260.357C85.3685 260.357 86.9505 258.778 86.9505 256.827C86.9505 254.875 85.3685 253.297 83.4206 253.297ZM97.0166 253.297C95.0687 253.297 93.4902 254.875 93.4902 256.827C93.4902 258.775 95.0687 260.357 97.0166 260.357C98.9645 260.357 100.547 258.778 100.547 256.827C100.543 254.875 98.9645 253.297 97.0166 253.297ZM110.609 253.297C108.661 253.297 107.079 254.875 107.079 256.827C107.079 258.775 108.658 260.357 110.609 260.357C112.557 260.357 114.136 258.778 114.136 256.827C114.139 254.875 112.557 253.297 110.609 253.297ZM124.205 253.297C122.257 253.297 120.675 254.875 120.675 256.827C120.675 258.775 122.254 260.357 124.205 260.357C126.153 260.357 127.732 258.778 127.732 256.827C127.732 254.875 126.153 253.297 124.205 253.297ZM137.798 253.297C135.85 253.297 134.271 254.875 134.271 256.827C134.271 258.775 135.85 260.357 137.798 260.357C139.746 260.357 141.328 258.778 141.328 256.827C141.328 254.875 139.746 253.297 137.798 253.297ZM151.394 253.297C149.446 253.297 147.864 254.875 147.864 256.827C147.864 258.775 149.442 260.357 151.394 260.357C153.342 260.357 154.924 258.778 154.924 256.827C154.92 254.875 153.342 253.297 151.394 253.297ZM164.986 253.297C163.039 253.297 161.456 254.875 161.456 256.827C161.456 258.775 163.035 260.357 164.986 260.357C166.934 260.357 168.513 258.778 168.513 256.827C168.516 254.875 166.934 253.297 164.986 253.297ZM178.583 253.297C176.635 253.297 175.053 254.875 175.053 256.827C175.053 258.775 176.631 260.357 178.583 260.357C180.53 260.357 182.109 258.778 182.109 256.827C182.109 254.875 180.53 253.297 178.583 253.297ZM192.175 253.297C190.227 253.297 188.649 254.875 188.649 256.827C188.649 258.775 190.227 260.357 192.175 260.357C194.123 260.357 195.705 258.778 195.705 256.827C195.705 254.875 194.123 253.297 192.175 253.297ZM205.768 253.297C203.82 253.297 202.238 254.875 202.238 256.827C202.238 258.775 203.816 260.357 205.768 260.357C207.716 260.357 209.298 258.778 209.298 256.827C209.298 254.875 207.719 253.297 205.768 253.297ZM219.364 253.297C217.416 253.297 215.834 254.875 215.834 256.827C215.834 258.775 217.412 260.357 219.364 260.357C221.312 260.357 222.89 258.778 222.89 256.827C222.89 254.875 221.312 253.297 219.364 253.297ZM232.956 253.297C231.008 253.297 229.426 254.875 229.426 256.827C229.426 258.775 231.005 260.357 232.956 260.357C234.904 260.357 236.486 258.778 236.486 256.827C236.486 254.875 234.908 253.297 232.956 253.297ZM246.552 253.297C244.604 253.297 243.026 254.875 243.026 256.827C243.026 258.775 244.604 260.357 246.552 260.357C248.5 260.357 250.082 258.778 250.082 256.827C250.079 254.875 248.5 253.297 246.552 253.297ZM260.145 253.297C258.197 253.297 256.615 254.875 256.615 256.827C256.615 258.775 258.193 260.357 260.145 260.357C262.093 260.357 263.675 258.778 263.675 256.827C263.675 254.875 262.096 253.297 260.145 253.297ZM273.741 253.297C271.793 253.297 270.211 254.875 270.211 256.827C270.211 258.775 271.789 260.357 273.741 260.357C275.689 260.357 277.267 258.778 277.267 256.827C277.267 254.875 275.689 253.297 273.741 253.297ZM287.333 253.297C285.386 253.297 283.804 254.875 283.804 256.827C283.804 258.775 285.382 260.357 287.333 260.357C289.281 260.357 290.863 258.778 290.863 256.827C290.863 254.875 289.281 253.297 287.333 253.297ZM300.93 253.297C298.982 253.297 297.403 254.875 297.403 256.827C297.403 258.775 298.982 260.357 300.93 260.357C302.878 260.357 304.46 258.778 304.46 256.827C304.456 254.875 302.878 253.297 300.93 253.297ZM314.522 253.297C312.574 253.297 310.992 254.875 310.992 256.827C310.992 258.775 312.571 260.357 314.522 260.357C316.47 260.357 318.052 258.778 318.052 256.827C318.052 254.875 316.47 253.297 314.522 253.297ZM328.118 253.297C326.17 253.297 324.588 254.875 324.588 256.827C324.588 258.775 326.167 260.357 328.118 260.357C330.066 260.357 331.645 258.778 331.645 256.827C331.645 254.875 330.066 253.297 328.118 253.297ZM341.711 253.297C339.763 253.297 338.181 254.875 338.181 256.827C338.181 258.775 339.759 260.357 341.711 260.357C343.662 260.357 345.241 258.778 345.241 256.827C345.241 254.875 343.659 253.297 341.711 253.297ZM355.307 253.297C353.359 253.297 351.78 254.875 351.78 256.827C351.78 258.775 353.359 260.357 355.307 260.357C357.255 260.357 358.837 258.778 358.837 256.827C358.833 254.875 357.255 253.297 355.307 253.297ZM368.899 253.297C366.951 253.297 365.37 254.875 365.37 256.827C365.37 258.775 366.948 260.357 368.899 260.357C370.847 260.357 372.429 258.778 372.429 256.827C372.429 254.875 370.847 253.297 368.899 253.297ZM382.496 253.297C380.548 253.297 378.966 254.875 378.966 256.827C378.966 258.775 380.544 260.357 382.496 260.357C384.443 260.357 386.022 258.778 386.022 256.827C386.022 254.875 384.443 253.297 382.496 253.297ZM396.088 253.297C394.14 253.297 392.562 254.875 392.562 256.827C392.562 258.775 394.14 260.357 396.088 260.357C398.036 260.357 399.618 258.778 399.618 256.827C399.618 254.875 398.036 253.297 396.088 253.297ZM409.684 253.77C407.998 253.77 406.631 255.137 406.631 256.823C406.631 258.509 407.998 259.876 409.684 259.876C411.37 259.876 412.737 258.509 412.737 256.823C412.737 255.137 411.37 253.77 409.684 253.77ZM15.4723 270.419C15.4723 270.409 15.4615 270.398 15.4507 270.398C15.4363 270.398 15.4292 270.409 15.4292 270.419C15.4292 270.434 15.4399 270.441 15.4507 270.441C15.4615 270.441 15.4723 270.43 15.4723 270.419ZM29.0432 272.816C30.367 272.816 31.4396 271.743 31.4396 270.419C31.4396 269.096 30.367 268.023 29.0432 268.023C27.7195 268.023 26.6469 269.096 26.6469 270.419C26.6469 271.743 27.7195 272.816 29.0432 272.816ZM42.6394 266.889C40.6914 266.889 39.113 268.468 39.113 270.416C39.113 272.364 40.6914 273.946 42.6394 273.946C44.5873 273.946 46.1694 272.367 46.1694 270.416C46.1694 268.464 44.5873 266.889 42.6394 266.889ZM56.2319 266.889C54.284 266.889 52.7019 268.468 52.7019 270.416C52.7019 272.364 54.2804 273.946 56.2319 273.946C58.1798 273.946 59.7619 272.367 59.7619 270.416C59.7619 268.464 58.1798 266.889 56.2319 266.889ZM69.828 266.889C67.8801 266.889 66.298 268.468 66.298 270.416C66.298 272.364 67.8765 273.946 69.828 273.946C71.776 273.946 73.3544 272.367 73.3544 270.416C73.3544 268.464 71.776 266.889 69.828 266.889ZM83.4206 266.889C81.4726 266.889 79.8942 268.468 79.8942 270.416C79.8942 272.364 81.4726 273.946 83.4206 273.946C85.3685 273.946 86.9505 272.367 86.9505 270.416C86.9505 268.464 85.3685 266.889 83.4206 266.889ZM97.0166 266.889C95.0687 266.889 93.4902 268.468 93.4902 270.416C93.4902 272.364 95.0687 273.946 97.0166 273.946C98.9645 273.946 100.547 272.367 100.547 270.416C100.547 268.464 98.9645 266.889 97.0166 266.889ZM110.609 266.889C108.661 266.889 107.079 268.468 107.079 270.416C107.079 272.364 108.658 273.946 110.609 273.946C112.557 273.946 114.136 272.367 114.136 270.416C114.136 268.464 112.557 266.889 110.609 266.889ZM124.205 266.889C122.257 266.889 120.675 268.468 120.675 270.416C120.675 272.364 122.254 273.946 124.205 273.946C126.153 273.946 127.732 272.367 127.732 270.416C127.732 268.464 126.153 266.889 124.205 266.889ZM137.798 266.889C135.85 266.889 134.271 268.468 134.271 270.416C134.271 272.364 135.85 273.946 137.798 273.946C139.746 273.946 141.328 272.367 141.328 270.416C141.328 268.464 139.746 266.889 137.798 266.889ZM151.394 266.889C149.446 266.889 147.864 268.468 147.864 270.416C147.864 272.364 149.442 273.946 151.394 273.946C153.342 273.946 154.924 272.367 154.924 270.416C154.924 268.464 153.342 266.889 151.394 266.889ZM164.986 266.889C163.039 266.889 161.456 268.468 161.456 270.416C161.456 272.364 163.035 273.946 164.986 273.946C166.934 273.946 168.513 272.367 168.513 270.416C168.513 268.464 166.934 266.889 164.986 266.889ZM178.583 266.889C176.635 266.889 175.053 268.468 175.053 270.416C175.053 272.364 176.631 273.946 178.583 273.946C180.53 273.946 182.109 272.367 182.109 270.416C182.109 268.464 180.53 266.889 178.583 266.889ZM192.175 266.889C190.227 266.889 188.649 268.468 188.649 270.416C188.649 272.364 190.227 273.946 192.175 273.946C194.123 273.946 195.705 272.367 195.705 270.416C195.705 268.464 194.123 266.889 192.175 266.889ZM205.768 266.889C203.82 266.889 202.238 268.468 202.238 270.416C202.238 272.364 203.816 273.946 205.768 273.946C207.716 273.946 209.298 272.367 209.298 270.416C209.298 268.464 207.719 266.889 205.768 266.889ZM219.364 266.889C217.416 266.889 215.834 268.468 215.834 270.416C215.834 272.364 217.412 273.946 219.364 273.946C221.312 273.946 222.89 272.367 222.89 270.416C222.89 268.464 221.312 266.889 219.364 266.889ZM232.956 266.889C231.008 266.889 229.426 268.468 229.426 270.416C229.426 272.364 231.005 273.946 232.956 273.946C234.904 273.946 236.486 272.367 236.486 270.416C236.486 268.464 234.908 266.889 232.956 266.889ZM246.552 266.889C244.604 266.889 243.026 268.468 243.026 270.416C243.026 272.364 244.604 273.946 246.552 273.946C248.5 273.946 250.082 272.367 250.082 270.416C250.082 268.464 248.5 266.889 246.552 266.889ZM260.145 266.889C258.197 266.889 256.615 268.468 256.615 270.416C256.615 272.364 258.193 273.946 260.145 273.946C262.093 273.946 263.675 272.367 263.675 270.416C263.675 268.464 262.096 266.889 260.145 266.889ZM273.741 266.889C271.793 266.889 270.211 268.468 270.211 270.416C270.211 272.364 271.789 273.946 273.741 273.946C275.689 273.946 277.267 272.367 277.267 270.416C277.267 268.464 275.689 266.889 273.741 266.889ZM287.333 266.889C285.386 266.889 283.804 268.468 283.804 270.416C283.804 272.364 285.382 273.946 287.333 273.946C289.281 273.946 290.863 272.367 290.863 270.416C290.863 268.464 289.281 266.889 287.333 266.889ZM300.93 266.889C298.982 266.889 297.403 268.468 297.403 270.416C297.403 272.364 298.982 273.946 300.93 273.946C302.878 273.946 304.46 272.367 304.46 270.416C304.46 268.464 302.878 266.889 300.93 266.889ZM314.522 266.889C312.574 266.889 310.992 268.468 310.992 270.416C310.992 272.364 312.571 273.946 314.522 273.946C316.47 273.946 318.052 272.367 318.052 270.416C318.052 268.464 316.47 266.889 314.522 266.889ZM328.118 266.889C326.17 266.889 324.588 268.468 324.588 270.416C324.588 272.364 326.167 273.946 328.118 273.946C330.066 273.946 331.645 272.367 331.645 270.416C331.645 268.464 330.066 266.889 328.118 266.889ZM341.711 266.889C339.763 266.889 338.181 268.468 338.181 270.416C338.181 272.364 339.759 273.946 341.711 273.946C343.662 273.946 345.241 272.367 345.241 270.416C345.241 268.464 343.659 266.889 341.711 266.889ZM355.307 266.889C353.359 266.889 351.78 268.468 351.78 270.416C351.78 272.364 353.359 273.946 355.307 273.946C357.255 273.946 358.837 272.367 358.837 270.416C358.837 268.464 357.255 266.889 355.307 266.889ZM368.899 266.889C366.951 266.889 365.37 268.468 365.37 270.416C365.37 272.364 366.948 273.946 368.899 273.946C370.847 273.946 372.429 272.367 372.429 270.416C372.429 268.464 370.847 266.889 368.899 266.889ZM382.496 266.889C380.548 266.889 378.966 268.468 378.966 270.416C378.966 272.364 380.544 273.946 382.496 273.946C384.443 273.946 386.022 272.367 386.022 270.416C386.022 268.464 384.443 266.889 382.496 266.889ZM396.088 266.889C394.14 266.889 392.562 268.468 392.562 270.416C392.562 272.364 394.14 273.946 396.088 273.946C398.036 273.946 399.618 272.367 399.618 270.416C399.618 268.464 398.036 266.889 396.088 266.889ZM409.684 267.367C407.998 267.367 406.631 268.733 406.631 270.419C406.631 272.105 407.998 273.472 409.684 273.472C411.37 273.472 412.737 272.105 412.737 270.419C412.737 268.733 411.37 267.367 409.684 267.367ZM15.4507 284.919C15.9493 284.919 16.3548 284.514 16.3548 284.015C16.3548 283.517 15.9493 283.111 15.4507 283.111C14.9521 283.111 14.5467 283.517 14.5467 284.015C14.5467 284.514 14.9521 284.919 15.4507 284.919ZM29.0432 287.52C30.9804 287.52 32.5482 285.949 32.5482 284.015C32.5482 282.078 30.9768 280.511 29.0432 280.511C27.1096 280.511 25.5384 282.082 25.5384 284.015C25.5384 285.949 27.1096 287.52 29.0432 287.52ZM42.6394 280.485C40.6914 280.485 39.113 282.064 39.113 284.015C39.113 285.963 40.6914 287.545 42.6394 287.545C44.5873 287.545 46.1694 285.967 46.1694 284.015C46.1658 282.064 44.5873 280.485 42.6394 280.485ZM56.2319 280.485C54.284 280.485 52.7019 282.064 52.7019 284.015C52.7019 285.963 54.2804 287.545 56.2319 287.545C58.1798 287.545 59.7619 285.967 59.7619 284.015C59.7619 282.064 58.1798 280.485 56.2319 280.485ZM69.828 280.485C67.8801 280.485 66.298 282.064 66.298 284.015C66.298 285.963 67.8765 287.545 69.828 287.545C71.776 287.545 73.3544 285.967 73.3544 284.015C73.3544 282.064 71.776 280.485 69.828 280.485ZM83.4206 280.485C81.4726 280.485 79.8942 282.064 79.8942 284.015C79.8942 285.963 81.4726 287.545 83.4206 287.545C85.3685 287.545 86.9505 285.967 86.9505 284.015C86.9505 282.064 85.3685 280.485 83.4206 280.485ZM97.0166 280.485C95.0687 280.485 93.4902 282.064 93.4902 284.015C93.4902 285.963 95.0687 287.545 97.0166 287.545C98.9645 287.545 100.547 285.967 100.547 284.015C100.543 282.064 98.9645 280.485 97.0166 280.485ZM110.609 280.485C108.661 280.485 107.079 282.064 107.079 284.015C107.079 285.963 108.658 287.545 110.609 287.545C112.557 287.545 114.136 285.967 114.136 284.015C114.139 282.064 112.557 280.485 110.609 280.485ZM124.205 280.485C122.257 280.485 120.675 282.064 120.675 284.015C120.675 285.963 122.254 287.545 124.205 287.545C126.153 287.545 127.732 285.967 127.732 284.015C127.732 282.064 126.153 280.485 124.205 280.485ZM137.798 280.485C135.85 280.485 134.271 282.064 134.271 284.015C134.271 285.963 135.85 287.545 137.798 287.545C139.746 287.545 141.328 285.967 141.328 284.015C141.328 282.064 139.746 280.485 137.798 280.485ZM151.394 280.485C149.446 280.485 147.864 282.064 147.864 284.015C147.864 285.963 149.442 287.545 151.394 287.545C153.342 287.545 154.924 285.967 154.924 284.015C154.92 282.064 153.342 280.485 151.394 280.485ZM164.986 280.485C163.039 280.485 161.456 282.064 161.456 284.015C161.456 285.963 163.035 287.545 164.986 287.545C166.934 287.545 168.513 285.967 168.513 284.015C168.516 282.064 166.934 280.485 164.986 280.485ZM178.583 280.485C176.635 280.485 175.053 282.064 175.053 284.015C175.053 285.963 176.631 287.545 178.583 287.545C180.53 287.545 182.109 285.967 182.109 284.015C182.109 282.064 180.53 280.485 178.583 280.485ZM192.175 280.485C190.227 280.485 188.649 282.064 188.649 284.015C188.649 285.963 190.227 287.545 192.175 287.545C194.123 287.545 195.705 285.967 195.705 284.015C195.705 282.064 194.123 280.485 192.175 280.485ZM205.768 280.485C203.82 280.485 202.238 282.064 202.238 284.015C202.238 285.963 203.816 287.545 205.768 287.545C207.716 287.545 209.298 285.967 209.298 284.015C209.298 282.064 207.719 280.485 205.768 280.485ZM219.364 280.485C217.416 280.485 215.834 282.064 215.834 284.015C215.834 285.963 217.412 287.545 219.364 287.545C221.312 287.545 222.89 285.967 222.89 284.015C222.89 282.064 221.312 280.485 219.364 280.485ZM232.956 280.485C231.008 280.485 229.426 282.064 229.426 284.015C229.426 285.963 231.005 287.545 232.956 287.545C234.904 287.545 236.486 285.967 236.486 284.015C236.486 282.064 234.908 280.485 232.956 280.485ZM246.552 280.485C244.604 280.485 243.026 282.064 243.026 284.015C243.026 285.963 244.604 287.545 246.552 287.545C248.5 287.545 250.082 285.967 250.082 284.015C250.079 282.064 248.5 280.485 246.552 280.485ZM260.145 280.485C258.197 280.485 256.615 282.064 256.615 284.015C256.615 285.963 258.193 287.545 260.145 287.545C262.093 287.545 263.675 285.967 263.675 284.015C263.675 282.064 262.096 280.485 260.145 280.485ZM273.741 280.485C271.793 280.485 270.211 282.064 270.211 284.015C270.211 285.963 271.789 287.545 273.741 287.545C275.689 287.545 277.267 285.967 277.267 284.015C277.267 282.064 275.689 280.485 273.741 280.485ZM287.333 280.485C285.386 280.485 283.804 282.064 283.804 284.015C283.804 285.963 285.382 287.545 287.333 287.545C289.281 287.545 290.863 285.967 290.863 284.015C290.863 282.064 289.281 280.485 287.333 280.485ZM300.93 280.485C298.982 280.485 297.403 282.064 297.403 284.015C297.403 285.963 298.982 287.545 300.93 287.545C302.878 287.545 304.46 285.967 304.46 284.015C304.456 282.064 302.878 280.485 300.93 280.485ZM314.522 280.485C312.574 280.485 310.992 282.064 310.992 284.015C310.992 285.963 312.571 287.545 314.522 287.545C316.47 287.545 318.052 285.967 318.052 284.015C318.052 282.064 316.47 280.485 314.522 280.485ZM328.118 280.485C326.17 280.485 324.588 282.064 324.588 284.015C324.588 285.963 326.167 287.545 328.118 287.545C330.066 287.545 331.645 285.967 331.645 284.015C331.645 282.064 330.066 280.485 328.118 280.485ZM341.711 280.485C339.763 280.485 338.181 282.064 338.181 284.015C338.181 285.963 339.759 287.545 341.711 287.545C343.662 287.545 345.241 285.967 345.241 284.015C345.241 282.064 343.659 280.485 341.711 280.485ZM355.307 280.485C353.359 280.485 351.78 282.064 351.78 284.015C351.78 285.963 353.359 287.545 355.307 287.545C357.255 287.545 358.837 285.967 358.837 284.015C358.833 282.064 357.255 280.485 355.307 280.485ZM368.899 280.485C366.951 280.485 365.37 282.064 365.37 284.015C365.37 285.963 366.948 287.545 368.899 287.545C370.847 287.545 372.429 285.967 372.429 284.015C372.429 282.064 370.847 280.485 368.899 280.485ZM382.496 280.485C380.548 280.485 378.966 282.064 378.966 284.015C378.966 285.963 380.544 287.545 382.496 287.545C384.443 287.545 386.022 285.967 386.022 284.015C386.022 282.064 384.443 280.485 382.496 280.485ZM396.088 280.485C394.14 280.485 392.562 282.064 392.562 284.015C392.562 285.963 394.14 287.545 396.088 287.545C398.036 287.545 399.618 285.967 399.618 284.015C399.618 282.064 398.036 280.485 396.088 280.485ZM409.684 280.959C407.998 280.959 406.631 282.326 406.631 284.012C406.631 285.698 407.998 287.065 409.684 287.065C411.37 287.065 412.737 285.698 412.737 284.012C412.737 282.326 411.37 280.959 409.684 280.959ZM1.87973 297.608C1.87973 297.594 1.86893 297.586 1.85816 297.586C1.8474 297.586 1.83671 297.597 1.83671 297.608C1.83671 297.619 1.8474 297.629 1.85816 297.629C1.86893 297.629 1.87973 297.619 1.87973 297.608ZM15.4507 300.209C16.8856 300.209 18.0516 299.043 18.0516 297.608C18.0516 296.173 16.8856 295.007 15.4507 295.007C14.0122 295.007 12.8499 296.173 12.8499 297.608C12.8499 299.043 14.0122 300.209 15.4507 300.209ZM29.0432 294.078C27.0953 294.078 25.5133 295.656 25.5133 297.608C25.5133 299.556 27.0917 301.134 29.0432 301.134C30.9912 301.134 32.5732 299.556 32.5732 297.608C32.5732 295.66 30.9912 294.078 29.0432 294.078ZM42.6394 294.078C40.6914 294.078 39.113 295.656 39.113 297.608C39.113 299.556 40.6914 301.134 42.6394 301.134C44.5873 301.134 46.1694 299.556 46.1694 297.608C46.1658 295.66 44.5873 294.078 42.6394 294.078ZM56.2319 294.078C54.284 294.078 52.7019 295.656 52.7019 297.608C52.7019 299.556 54.2804 301.134 56.2319 301.134C58.1798 301.134 59.7619 299.556 59.7619 297.608C59.7619 295.66 58.1798 294.078 56.2319 294.078ZM69.828 294.078C67.8801 294.078 66.298 295.656 66.298 297.608C66.298 299.556 67.8765 301.134 69.828 301.134C71.776 301.134 73.3544 299.556 73.3544 297.608C73.3544 295.66 71.776 294.078 69.828 294.078ZM83.4206 294.078C81.4726 294.078 79.8942 295.656 79.8942 297.608C79.8942 299.556 81.4726 301.134 83.4206 301.134C85.3685 301.134 86.9505 299.556 86.9505 297.608C86.9505 295.66 85.3685 294.078 83.4206 294.078ZM97.0166 294.078C95.0687 294.078 93.4902 295.656 93.4902 297.608C93.4902 299.556 95.0687 301.134 97.0166 301.134C98.9645 301.134 100.547 299.556 100.547 297.608C100.543 295.66 98.9645 294.078 97.0166 294.078ZM110.609 294.078C108.661 294.078 107.079 295.656 107.079 297.608C107.079 299.556 108.658 301.134 110.609 301.134C112.557 301.134 114.136 299.556 114.136 297.608C114.139 295.66 112.557 294.078 110.609 294.078ZM124.205 294.078C122.257 294.078 120.675 295.656 120.675 297.608C120.675 299.556 122.254 301.134 124.205 301.134C126.153 301.134 127.732 299.556 127.732 297.608C127.732 295.66 126.153 294.078 124.205 294.078ZM137.798 294.078C135.85 294.078 134.271 295.656 134.271 297.608C134.271 299.556 135.85 301.134 137.798 301.134C139.746 301.134 141.328 299.556 141.328 297.608C141.328 295.66 139.746 294.078 137.798 294.078ZM151.394 294.078C149.446 294.078 147.864 295.656 147.864 297.608C147.864 299.556 149.442 301.134 151.394 301.134C153.342 301.134 154.924 299.556 154.924 297.608C154.92 295.66 153.342 294.078 151.394 294.078ZM164.986 294.078C163.039 294.078 161.456 295.656 161.456 297.608C161.456 299.556 163.035 301.134 164.986 301.134C166.934 301.134 168.513 299.556 168.513 297.608C168.516 295.66 166.934 294.078 164.986 294.078ZM178.583 294.078C176.635 294.078 175.053 295.656 175.053 297.608C175.053 299.556 176.631 301.134 178.583 301.134C180.53 301.134 182.109 299.556 182.109 297.608C182.109 295.66 180.53 294.078 178.583 294.078ZM192.175 294.078C190.227 294.078 188.649 295.656 188.649 297.608C188.649 299.556 190.227 301.134 192.175 301.134C194.123 301.134 195.705 299.556 195.705 297.608C195.705 295.66 194.123 294.078 192.175 294.078ZM205.768 294.078C203.82 294.078 202.238 295.656 202.238 297.608C202.238 299.556 203.816 301.134 205.768 301.134C207.716 301.134 209.298 299.556 209.298 297.608C209.298 295.66 207.719 294.078 205.768 294.078ZM219.364 294.078C217.416 294.078 215.834 295.656 215.834 297.608C215.834 299.556 217.412 301.134 219.364 301.134C221.312 301.134 222.89 299.556 222.89 297.608C222.89 295.66 221.312 294.078 219.364 294.078ZM232.956 294.078C231.008 294.078 229.426 295.656 229.426 297.608C229.426 299.556 231.005 301.134 232.956 301.134C234.904 301.134 236.486 299.556 236.486 297.608C236.486 295.66 234.908 294.078 232.956 294.078ZM246.552 294.078C244.604 294.078 243.026 295.656 243.026 297.608C243.026 299.556 244.604 301.134 246.552 301.134C248.5 301.134 250.082 299.556 250.082 297.608C250.079 295.66 248.5 294.078 246.552 294.078ZM260.145 294.078C258.197 294.078 256.615 295.656 256.615 297.608C256.615 299.556 258.193 301.134 260.145 301.134C262.093 301.134 263.675 299.556 263.675 297.608C263.675 295.66 262.096 294.078 260.145 294.078ZM273.741 294.078C271.793 294.078 270.211 295.656 270.211 297.608C270.211 299.556 271.789 301.134 273.741 301.134C275.689 301.134 277.267 299.556 277.267 297.608C277.267 295.66 275.689 294.078 273.741 294.078ZM287.333 294.078C285.386 294.078 283.804 295.656 283.804 297.608C283.804 299.556 285.382 301.134 287.333 301.134C289.281 301.134 290.863 299.556 290.863 297.608C290.863 295.66 289.281 294.078 287.333 294.078ZM300.93 294.078C298.982 294.078 297.403 295.656 297.403 297.608C297.403 299.556 298.982 301.134 300.93 301.134C302.878 301.134 304.46 299.556 304.46 297.608C304.456 295.66 302.878 294.078 300.93 294.078ZM314.522 294.078C312.574 294.078 310.992 295.656 310.992 297.608C310.992 299.556 312.571 301.134 314.522 301.134C316.47 301.134 318.052 299.556 318.052 297.608C318.052 295.66 316.47 294.078 314.522 294.078ZM328.118 294.078C326.17 294.078 324.588 295.656 324.588 297.608C324.588 299.556 326.167 301.134 328.118 301.134C330.066 301.134 331.645 299.556 331.645 297.608C331.645 295.66 330.066 294.078 328.118 294.078ZM341.711 294.078C339.763 294.078 338.181 295.656 338.181 297.608C338.181 299.556 339.759 301.134 341.711 301.134C343.662 301.134 345.241 299.556 345.241 297.608C345.241 295.66 343.659 294.078 341.711 294.078ZM355.307 294.078C353.359 294.078 351.78 295.656 351.78 297.608C351.78 299.556 353.359 301.134 355.307 301.134C357.255 301.134 358.837 299.556 358.837 297.608C358.833 295.66 357.255 294.078 355.307 294.078ZM368.899 294.078C366.951 294.078 365.37 295.656 365.37 297.608C365.37 299.556 366.948 301.134 368.899 301.134C370.847 301.134 372.429 299.556 372.429 297.608C372.429 295.66 370.847 294.078 368.899 294.078ZM382.496 294.078C380.548 294.078 378.966 295.656 378.966 297.608C378.966 299.556 380.544 301.134 382.496 301.134C384.443 301.134 386.022 299.556 386.022 297.608C386.022 295.66 384.443 294.078 382.496 294.078ZM396.088 294.078C394.14 294.078 392.562 295.656 392.562 297.608C392.562 299.556 394.14 301.134 396.088 301.134C398.036 301.134 399.618 299.556 399.618 297.608C399.618 295.66 398.036 294.078 396.088 294.078ZM409.684 294.555C407.998 294.555 406.631 295.922 406.631 297.608C406.631 299.294 407.998 300.661 409.684 300.661C411.37 300.661 412.737 299.294 412.737 297.608C412.737 295.922 411.37 294.555 409.684 294.555ZM1.85466 311.789C2.18111 311.789 2.44299 311.527 2.44299 311.201C2.44299 310.874 2.18111 310.612 1.85466 310.612C1.5318 310.612 1.26633 310.874 1.26633 311.201C1.26633 311.527 1.5318 311.789 1.85466 311.789ZM15.4507 314.709C17.3879 314.709 18.9556 313.138 18.9556 311.204C18.9556 309.267 17.3843 307.699 15.4507 307.699C13.5135 307.699 11.9459 309.271 11.9459 311.204C11.9459 313.138 13.5135 314.709 15.4507 314.709ZM29.0432 307.674C27.0953 307.674 25.5133 309.253 25.5133 311.204C25.5133 313.152 27.0917 314.734 29.0432 314.734C30.9912 314.734 32.5732 313.156 32.5732 311.204C32.5732 309.253 30.9912 307.674 29.0432 307.674ZM42.6394 307.674C40.6914 307.674 39.113 309.253 39.113 311.204C39.113 313.152 40.6914 314.734 42.6394 314.734C44.5873 314.734 46.1694 313.156 46.1694 311.204C46.1658 309.253 44.5873 307.674 42.6394 307.674ZM56.2319 307.674C54.284 307.674 52.7019 309.253 52.7019 311.204C52.7019 313.152 54.2804 314.734 56.2319 314.734C58.1798 314.734 59.7619 313.156 59.7619 311.204C59.7619 309.253 58.1798 307.674 56.2319 307.674ZM69.828 307.674C67.8801 307.674 66.298 309.253 66.298 311.204C66.298 313.152 67.8765 314.734 69.828 314.734C71.776 314.734 73.3544 313.156 73.3544 311.204C73.3544 309.253 71.776 307.674 69.828 307.674ZM83.4206 307.674C81.4726 307.674 79.8942 309.253 79.8942 311.204C79.8942 313.152 81.4726 314.734 83.4206 314.734C85.3685 314.734 86.9505 313.156 86.9505 311.204C86.9505 309.253 85.3685 307.674 83.4206 307.674ZM97.0166 307.674C95.0687 307.674 93.4902 309.253 93.4902 311.204C93.4902 313.152 95.0687 314.734 97.0166 314.734C98.9645 314.734 100.547 313.156 100.547 311.204C100.543 309.253 98.9645 307.674 97.0166 307.674ZM110.609 307.674C108.661 307.674 107.079 309.253 107.079 311.204C107.079 313.152 108.658 314.734 110.609 314.734C112.557 314.734 114.136 313.156 114.136 311.204C114.139 309.253 112.557 307.674 110.609 307.674ZM124.205 307.674C122.257 307.674 120.675 309.253 120.675 311.204C120.675 313.152 122.254 314.734 124.205 314.734C126.153 314.734 127.732 313.156 127.732 311.204C127.732 309.253 126.153 307.674 124.205 307.674ZM137.798 307.674C135.85 307.674 134.271 309.253 134.271 311.204C134.271 313.152 135.85 314.734 137.798 314.734C139.746 314.734 141.328 313.156 141.328 311.204C141.328 309.253 139.746 307.674 137.798 307.674ZM151.394 307.674C149.446 307.674 147.864 309.253 147.864 311.204C147.864 313.152 149.442 314.734 151.394 314.734C153.342 314.734 154.924 313.156 154.924 311.204C154.92 309.253 153.342 307.674 151.394 307.674ZM164.986 307.674C163.039 307.674 161.456 309.253 161.456 311.204C161.456 313.152 163.035 314.734 164.986 314.734C166.934 314.734 168.513 313.156 168.513 311.204C168.516 309.253 166.934 307.674 164.986 307.674ZM178.583 307.674C176.635 307.674 175.053 309.253 175.053 311.204C175.053 313.152 176.631 314.734 178.583 314.734C180.53 314.734 182.109 313.156 182.109 311.204C182.109 309.253 180.53 307.674 178.583 307.674ZM192.175 307.674C190.227 307.674 188.649 309.253 188.649 311.204C188.649 313.152 190.227 314.734 192.175 314.734C194.123 314.734 195.705 313.156 195.705 311.204C195.705 309.253 194.123 307.674 192.175 307.674ZM205.768 307.674C203.82 307.674 202.238 309.253 202.238 311.204C202.238 313.152 203.816 314.734 205.768 314.734C207.716 314.734 209.298 313.156 209.298 311.204C209.298 309.253 207.719 307.674 205.768 307.674ZM219.364 307.674C217.416 307.674 215.834 309.253 215.834 311.204C215.834 313.152 217.412 314.734 219.364 314.734C221.312 314.734 222.89 313.156 222.89 311.204C222.89 309.253 221.312 307.674 219.364 307.674ZM232.956 307.674C231.008 307.674 229.426 309.253 229.426 311.204C229.426 313.152 231.005 314.734 232.956 314.734C234.904 314.734 236.486 313.156 236.486 311.204C236.486 309.253 234.908 307.674 232.956 307.674ZM246.552 307.674C244.604 307.674 243.026 309.253 243.026 311.204C243.026 313.152 244.604 314.734 246.552 314.734C248.5 314.734 250.082 313.156 250.082 311.204C250.079 309.253 248.5 307.674 246.552 307.674ZM260.145 307.674C258.197 307.674 256.615 309.253 256.615 311.204C256.615 313.152 258.193 314.734 260.145 314.734C262.093 314.734 263.675 313.156 263.675 311.204C263.675 309.253 262.096 307.674 260.145 307.674ZM273.741 307.674C271.793 307.674 270.211 309.253 270.211 311.204C270.211 313.152 271.789 314.734 273.741 314.734C275.689 314.734 277.267 313.156 277.267 311.204C277.267 309.253 275.689 307.674 273.741 307.674ZM287.333 307.674C285.386 307.674 283.804 309.253 283.804 311.204C283.804 313.152 285.382 314.734 287.333 314.734C289.281 314.734 290.863 313.156 290.863 311.204C290.863 309.253 289.281 307.674 287.333 307.674ZM300.93 307.674C298.982 307.674 297.403 309.253 297.403 311.204C297.403 313.152 298.982 314.734 300.93 314.734C302.878 314.734 304.46 313.156 304.46 311.204C304.456 309.253 302.878 307.674 300.93 307.674ZM314.522 307.674C312.574 307.674 310.992 309.253 310.992 311.204C310.992 313.152 312.571 314.734 314.522 314.734C316.47 314.734 318.052 313.156 318.052 311.204C318.052 309.253 316.47 307.674 314.522 307.674ZM328.118 307.674C326.17 307.674 324.588 309.253 324.588 311.204C324.588 313.152 326.167 314.734 328.118 314.734C330.066 314.734 331.645 313.156 331.645 311.204C331.645 309.253 330.066 307.674 328.118 307.674ZM341.711 307.674C339.763 307.674 338.181 309.253 338.181 311.204C338.181 313.152 339.759 314.734 341.711 314.734C343.662 314.734 345.241 313.156 345.241 311.204C345.241 309.253 343.659 307.674 341.711 307.674ZM355.307 307.674C353.359 307.674 351.78 309.253 351.78 311.204C351.78 313.152 353.359 314.734 355.307 314.734C357.255 314.734 358.837 313.156 358.837 311.204C358.833 309.253 357.255 307.674 355.307 307.674ZM368.899 307.674C366.951 307.674 365.37 309.253 365.37 311.204C365.37 313.152 366.948 314.734 368.899 314.734C370.847 314.734 372.429 313.156 372.429 311.204C372.429 309.253 370.847 307.674 368.899 307.674ZM382.496 307.674C380.548 307.674 378.966 309.253 378.966 311.204C378.966 313.152 380.544 314.734 382.496 314.734C384.443 314.734 386.022 313.156 386.022 311.204C386.022 309.253 384.443 307.674 382.496 307.674ZM396.088 307.674C394.14 307.674 392.562 309.253 392.562 311.204C392.562 313.152 394.14 314.734 396.088 314.734C398.036 314.734 399.618 313.156 399.618 311.204C399.618 309.253 398.036 307.674 396.088 307.674ZM409.684 308.148C407.998 308.148 406.631 309.514 406.631 311.201C406.631 312.887 407.998 314.253 409.684 314.253C411.37 314.253 412.737 312.887 412.737 311.201C412.737 309.514 411.37 308.148 409.684 308.148ZM1.85466 322.942C0.832262 322.942 0 323.771 0 324.797C0 325.823 0.832262 326.651 1.85466 326.651C2.88065 326.651 3.70932 325.823 3.70932 324.797C3.70932 323.771 2.88065 322.942 1.85466 322.942ZM15.4507 321.267C13.5028 321.267 11.9208 322.845 11.9208 324.797C11.9208 326.748 13.4992 328.327 15.4507 328.327C17.3986 328.327 18.9771 326.748 18.9771 324.797C18.9771 322.845 17.3986 321.267 15.4507 321.267ZM29.0432 321.267C27.0953 321.267 25.5133 322.845 25.5133 324.797C25.5133 326.748 27.0917 328.327 29.0432 328.327C30.9912 328.327 32.5732 326.748 32.5732 324.797C32.5732 322.845 30.9912 321.267 29.0432 321.267ZM42.6394 321.267C40.6914 321.267 39.113 322.845 39.113 324.797C39.113 326.748 40.6914 328.327 42.6394 328.327C44.5873 328.327 46.1694 326.748 46.1694 324.797C46.1694 322.845 44.5873 321.267 42.6394 321.267ZM56.2319 321.267C54.284 321.267 52.7019 322.845 52.7019 324.797C52.7019 326.748 54.2804 328.327 56.2319 328.327C58.1798 328.327 59.7619 326.748 59.7619 324.797C59.7619 322.845 58.1798 321.267 56.2319 321.267ZM69.828 321.267C67.8801 321.267 66.298 322.845 66.298 324.797C66.298 326.748 67.8765 328.327 69.828 328.327C71.776 328.327 73.3544 326.748 73.3544 324.797C73.3544 322.845 71.776 321.267 69.828 321.267ZM83.4206 321.267C81.4726 321.267 79.8942 322.845 79.8942 324.797C79.8942 326.748 81.4726 328.327 83.4206 328.327C85.3685 328.327 86.9505 326.748 86.9505 324.797C86.9505 322.845 85.3685 321.267 83.4206 321.267ZM97.0166 321.267C95.0687 321.267 93.4902 322.845 93.4902 324.797C93.4902 326.748 95.0687 328.327 97.0166 328.327C98.9645 328.327 100.547 326.748 100.547 324.797C100.547 322.845 98.9645 321.267 97.0166 321.267ZM110.609 321.267C108.661 321.267 107.079 322.845 107.079 324.797C107.079 326.748 108.658 328.327 110.609 328.327C112.557 328.327 114.136 326.748 114.136 324.797C114.136 322.845 112.557 321.267 110.609 321.267ZM124.205 321.267C122.257 321.267 120.675 322.845 120.675 324.797C120.675 326.748 122.254 328.327 124.205 328.327C126.153 328.327 127.732 326.748 127.732 324.797C127.732 322.845 126.153 321.267 124.205 321.267ZM137.798 321.267C135.85 321.267 134.271 322.845 134.271 324.797C134.271 326.748 135.85 328.327 137.798 328.327C139.746 328.327 141.328 326.748 141.328 324.797C141.328 322.845 139.746 321.267 137.798 321.267ZM151.394 321.267C149.446 321.267 147.864 322.845 147.864 324.797C147.864 326.748 149.442 328.327 151.394 328.327C153.342 328.327 154.924 326.748 154.924 324.797C154.924 322.845 153.342 321.267 151.394 321.267ZM164.986 321.267C163.039 321.267 161.456 322.845 161.456 324.797C161.456 326.748 163.035 328.327 164.986 328.327C166.934 328.327 168.513 326.748 168.513 324.797C168.513 322.845 166.934 321.267 164.986 321.267ZM178.583 321.267C176.635 321.267 175.053 322.845 175.053 324.797C175.053 326.748 176.631 328.327 178.583 328.327C180.53 328.327 182.109 326.748 182.109 324.797C182.109 322.845 180.53 321.267 178.583 321.267ZM192.175 321.267C190.227 321.267 188.649 322.845 188.649 324.797C188.649 326.748 190.227 328.327 192.175 328.327C194.123 328.327 195.705 326.748 195.705 324.797C195.705 322.845 194.123 321.267 192.175 321.267ZM205.768 321.267C203.82 321.267 202.238 322.845 202.238 324.797C202.238 326.748 203.816 328.327 205.768 328.327C207.716 328.327 209.298 326.748 209.298 324.797C209.298 322.845 207.719 321.267 205.768 321.267ZM219.364 321.267C217.416 321.267 215.834 322.845 215.834 324.797C215.834 326.748 217.412 328.327 219.364 328.327C221.312 328.327 222.89 326.748 222.89 324.797C222.89 322.845 221.312 321.267 219.364 321.267ZM232.956 321.267C231.008 321.267 229.426 322.845 229.426 324.797C229.426 326.748 231.005 328.327 232.956 328.327C234.904 328.327 236.486 326.748 236.486 324.797C236.486 322.845 234.908 321.267 232.956 321.267ZM246.552 321.267C244.604 321.267 243.026 322.845 243.026 324.797C243.026 326.748 244.604 328.327 246.552 328.327C248.5 328.327 250.082 326.748 250.082 324.797C250.082 322.845 248.5 321.267 246.552 321.267ZM260.145 321.267C258.197 321.267 256.615 322.845 256.615 324.797C256.615 326.748 258.193 328.327 260.145 328.327C262.093 328.327 263.675 326.748 263.675 324.797C263.675 322.845 262.096 321.267 260.145 321.267ZM273.741 321.267C271.793 321.267 270.211 322.845 270.211 324.797C270.211 326.748 271.789 328.327 273.741 328.327C275.689 328.327 277.267 326.748 277.267 324.797C277.267 322.845 275.689 321.267 273.741 321.267ZM287.333 321.267C285.386 321.267 283.804 322.845 283.804 324.797C283.804 326.748 285.382 328.327 287.333 328.327C289.281 328.327 290.863 326.748 290.863 324.797C290.863 322.845 289.281 321.267 287.333 321.267ZM300.93 321.267C298.982 321.267 297.403 322.845 297.403 324.797C297.403 326.748 298.982 328.327 300.93 328.327C302.878 328.327 304.46 326.748 304.46 324.797C304.46 322.845 302.878 321.267 300.93 321.267ZM314.522 321.267C312.574 321.267 310.992 322.845 310.992 324.797C310.992 326.748 312.571 328.327 314.522 328.327C316.47 328.327 318.052 326.748 318.052 324.797C318.052 322.845 316.47 321.267 314.522 321.267ZM328.118 321.267C326.17 321.267 324.588 322.845 324.588 324.797C324.588 326.748 326.167 328.327 328.118 328.327C330.066 328.327 331.645 326.748 331.645 324.797C331.645 322.845 330.066 321.267 328.118 321.267ZM341.711 321.267C339.763 321.267 338.181 322.845 338.181 324.797C338.181 326.748 339.759 328.327 341.711 328.327C343.662 328.327 345.241 326.748 345.241 324.797C345.241 322.845 343.659 321.267 341.711 321.267ZM355.307 321.267C353.359 321.267 351.78 322.845 351.78 324.797C351.78 326.748 353.359 328.327 355.307 328.327C357.255 328.327 358.837 326.748 358.837 324.797C358.837 322.845 357.255 321.267 355.307 321.267ZM368.899 321.267C366.951 321.267 365.37 322.845 365.37 324.797C365.37 326.748 366.948 328.327 368.899 328.327C370.847 328.327 372.429 326.748 372.429 324.797C372.429 322.845 370.847 321.267 368.899 321.267ZM382.496 321.267C380.548 321.267 378.966 322.845 378.966 324.797C378.966 326.748 380.544 328.327 382.496 328.327C384.443 328.327 386.022 326.748 386.022 324.797C386.022 322.845 384.443 321.267 382.496 321.267ZM396.088 321.267C394.14 321.267 392.562 322.845 392.562 324.797C392.562 326.748 394.14 328.327 396.088 328.327C398.036 328.327 399.618 326.748 399.618 324.797C399.618 322.845 398.036 321.267 396.088 321.267ZM409.684 321.744C407.998 321.744 406.631 323.111 406.631 324.797C406.631 326.483 407.998 327.849 409.684 327.849C411.37 327.849 412.737 326.483 412.737 324.797C412.737 323.111 411.37 321.744 409.684 321.744ZM1.85466 336.56C0.843025 336.56 0.0214576 337.381 0.0214576 338.393C0.0214576 339.404 0.843025 340.226 1.85466 340.226C2.8663 340.226 3.68776 339.404 3.68776 338.393C3.68776 337.377 2.8663 336.56 1.85466 336.56ZM15.4507 335.971C14.1126 335.971 13.0293 337.055 13.0293 338.393C13.0293 339.731 14.1126 340.814 15.4507 340.814C16.7852 340.814 17.8722 339.731 17.8722 338.393C17.8686 337.055 16.7852 335.971 15.4507 335.971ZM29.0432 335.971C27.7051 335.971 26.6218 337.055 26.6218 338.393C26.6218 339.731 27.7051 340.814 29.0432 340.814C30.3813 340.814 31.4648 339.731 31.4648 338.393C31.4648 337.055 30.3813 335.971 29.0432 335.971ZM42.6394 335.971C41.3013 335.971 40.2179 337.055 40.2179 338.393C40.2179 339.731 41.3013 340.814 42.6394 340.814C43.9775 340.814 45.0608 339.731 45.0608 338.393C45.0572 337.055 43.9739 335.971 42.6394 335.971ZM56.2319 335.971C54.8938 335.971 53.8105 337.055 53.8105 338.393C53.8105 339.731 54.8938 340.814 56.2319 340.814C57.57 340.814 58.6533 339.731 58.6533 338.393C58.6533 337.055 57.57 335.971 56.2319 335.971ZM69.828 335.971C68.49 335.971 67.4065 337.055 67.4065 338.393C67.4065 339.731 68.49 340.814 69.828 340.814C71.1625 340.814 72.2495 339.731 72.2495 338.393C72.2459 337.055 71.1625 335.971 69.828 335.971ZM83.4206 335.971C82.0825 335.971 80.999 337.055 80.999 338.393C80.999 339.731 82.0825 340.814 83.4206 340.814C84.7587 340.814 85.842 339.731 85.842 338.393C85.842 337.055 84.7587 335.971 83.4206 335.971ZM97.0166 335.971C95.6785 335.971 94.5952 337.055 94.5952 338.393C94.5952 339.731 95.6785 340.814 97.0166 340.814C98.3511 340.814 99.4381 339.731 99.4381 338.393C99.4346 337.055 98.3511 335.971 97.0166 335.971ZM110.609 335.971C109.271 335.971 108.188 337.055 108.188 338.393C108.188 339.731 109.271 340.814 110.609 340.814C111.944 340.814 113.031 339.731 113.031 338.393C113.031 337.055 111.947 335.971 110.609 335.971ZM124.205 335.971C122.867 335.971 121.784 337.055 121.784 338.393C121.784 339.731 122.867 340.814 124.205 340.814C125.54 340.814 126.627 339.731 126.627 338.393C126.623 337.055 125.54 335.971 124.205 335.971ZM137.798 335.971C136.46 335.971 135.376 337.055 135.376 338.393C135.376 339.731 136.46 340.814 137.798 340.814C139.136 340.814 140.219 339.731 140.219 338.393C140.219 337.055 139.136 335.971 137.798 335.971ZM151.394 335.971C150.056 335.971 148.972 337.055 148.972 338.393C148.972 339.731 150.056 340.814 151.394 340.814C152.728 340.814 153.815 339.731 153.815 338.393C153.812 337.055 152.728 335.971 151.394 335.971ZM164.986 335.971C163.648 335.971 162.565 337.055 162.565 338.393C162.565 339.731 163.648 340.814 164.986 340.814C166.321 340.814 167.408 339.731 167.408 338.393C167.408 337.055 166.325 335.971 164.986 335.971ZM178.583 335.971C177.244 335.971 176.161 337.055 176.161 338.393C176.161 339.731 177.244 340.814 178.583 340.814C179.917 340.814 181 339.731 181 338.393C181 337.055 179.917 335.971 178.583 335.971ZM192.175 335.971C190.837 335.971 189.754 337.055 189.754 338.393C189.754 339.731 190.837 340.814 192.175 340.814C193.513 340.814 194.597 339.731 194.597 338.393C194.597 337.055 193.513 335.971 192.175 335.971ZM205.768 335.971C204.429 335.971 203.346 337.055 203.346 338.393C203.346 339.731 204.429 340.814 205.768 340.814C207.106 340.814 208.189 339.731 208.189 338.393C208.189 337.055 207.106 335.971 205.768 335.971ZM219.364 335.971C218.026 335.971 216.942 337.055 216.942 338.393C216.942 339.731 218.026 340.814 219.364 340.814C220.698 340.814 221.785 339.731 221.785 338.393C221.785 337.055 220.698 335.971 219.364 335.971ZM232.956 335.971C231.618 335.971 230.535 337.055 230.535 338.393C230.535 339.731 231.618 340.814 232.956 340.814C234.294 340.814 235.378 339.731 235.378 338.393C235.378 337.055 234.294 335.971 232.956 335.971ZM246.552 335.971C245.214 335.971 244.131 337.055 244.131 338.393C244.131 339.731 245.214 340.814 246.552 340.814C247.89 340.814 248.974 339.731 248.974 338.393C248.97 337.055 247.887 335.971 246.552 335.971ZM260.145 335.971C258.807 335.971 257.723 337.055 257.723 338.393C257.723 339.731 258.807 340.814 260.145 340.814C261.479 340.814 262.566 339.731 262.566 338.393C262.566 337.055 261.483 335.971 260.145 335.971ZM273.741 335.971C272.403 335.971 271.32 337.055 271.32 338.393C271.32 339.731 272.403 340.814 273.741 340.814C275.075 340.814 276.162 339.731 276.162 338.393C276.159 337.055 275.075 335.971 273.741 335.971ZM287.333 335.971C285.995 335.971 284.912 337.055 284.912 338.393C284.912 339.731 285.995 340.814 287.333 340.814C288.672 340.814 289.755 339.731 289.755 338.393C289.755 337.055 288.672 335.971 287.333 335.971ZM300.93 335.971C299.592 335.971 298.508 337.055 298.508 338.393C298.508 339.731 299.592 340.814 300.93 340.814C302.268 340.814 303.351 339.731 303.351 338.393C303.347 337.055 302.264 335.971 300.93 335.971ZM314.522 335.971C313.184 335.971 312.101 337.055 312.101 338.393C312.101 339.731 313.184 340.814 314.522 340.814C315.857 340.814 316.944 339.731 316.944 338.393C316.944 337.055 315.86 335.971 314.522 335.971ZM328.118 335.971C326.78 335.971 325.697 337.055 325.697 338.393C325.697 339.731 326.78 340.814 328.118 340.814C329.453 340.814 330.54 339.731 330.54 338.393C330.536 337.055 329.453 335.971 328.118 335.971ZM341.711 335.971C340.373 335.971 339.289 337.055 339.289 338.393C339.289 339.731 340.373 340.814 341.711 340.814C343.049 340.814 344.132 339.731 344.132 338.393C344.132 337.055 343.049 335.971 341.711 335.971ZM355.307 335.971C353.969 335.971 352.885 337.055 352.885 338.393C352.885 339.731 353.969 340.814 355.307 340.814C356.641 340.814 357.728 339.731 357.728 338.393C357.725 337.055 356.641 335.971 355.307 335.971ZM368.899 335.971C367.561 335.971 366.478 337.055 366.478 338.393C366.478 339.731 367.561 340.814 368.899 340.814C370.237 340.814 371.321 339.731 371.321 338.393C371.321 337.055 370.237 335.971 368.899 335.971ZM382.496 335.971C381.157 335.971 380.074 337.055 380.074 338.393C380.074 339.731 381.157 340.814 382.496 340.814C383.83 340.814 384.917 339.731 384.917 338.393C384.913 337.055 383.83 335.971 382.496 335.971ZM396.088 335.971C394.75 335.971 393.667 337.055 393.667 338.393C393.667 339.731 394.75 340.814 396.088 340.814C397.426 340.814 398.509 339.731 398.509 338.393C398.509 337.055 397.426 335.971 396.088 335.971ZM409.684 336.308C408.536 336.308 407.603 337.241 407.603 338.389C407.603 339.537 408.536 340.47 409.684 340.47C410.832 340.47 411.765 339.537 411.765 338.389C411.765 337.241 410.832 336.308 409.684 336.308Z" fill="#A5DAE0"/>
<path opacity="0.4" d="M417.999 0.449219C338.873 67.1778 441.611 173.098 344.168 211.228C246.72 249.359 190.14 272.052 159.246 343.929H417.999V0.449219Z" fill="#A5DAE0"/>
</svg>
